solid OpenSCAD_Model
  facet normal -0 0 -1
    outer loop
      vertex 0.420833 56.9225 0
      vertex 0.939878 59.9473 0
      vertex 0.476232 53.9464 0
    endloop
  endfacet
  facet normal 0 0 -1
    outer loop
      vertex 0.476232 53.9464 0
      vertex 0.939878 59.9473 0
      vertex 2.01068 62.8886 0
    endloop
  endfacet
  facet normal 0 0 -1
    outer loop
      vertex 0.476232 53.9464 0
      vertex 2.01068 62.8886 0
      vertex 3.58645 65.6179 0
    endloop
  endfacet
  facet normal 0 0 -1
    outer loop
      vertex 0.476232 53.9464 0
      vertex 3.58645 65.6179 0
      vertex 5.59831 68.0159 0
    endloop
  endfacet
  facet normal 0 0 -1
    outer loop
      vertex 0.476232 53.9464 0
      vertex 5.59831 68.0159 0
      vertex 7.95833 69.9778 0
    endloop
  endfacet
  facet normal 0 0 -1
    outer loop
      vertex 0.476232 53.9464 0
      vertex 7.95833 69.9778 0
      vertex 10.5634 71.4179 0
    endloop
  endfacet
  facet normal 0 0 -1
    outer loop
      vertex 0.476232 53.9464 0
      vertex 10.5634 71.4179 0
      vertex 13.2996 72.2731 0
    endloop
  endfacet
  facet normal 0 0 -1
    outer loop
      vertex 7.56122 62.6212 0
      vertex 13.2996 72.2731 0
      vertex 16.0474 72.5062 0
    endloop
  endfacet
  facet normal 0 0 -1
    outer loop
      vertex 9.16077 63.7118 0
      vertex 16.0474 72.5062 0
      vertex 18.6867 72.107 0
    endloop
  endfacet
  facet normal 0 0 -1
    outer loop
      vertex 15.0514 60.3108 0
      vertex 21.1021 71.0928 0
      vertex 35.8215 62.5946 0
    endloop
  endfacet
  facet normal 0 0 -1
    outer loop
      vertex 14.9067 58.3803 0
      vertex 35.825 62.593 0
      vertex 37.855 61.119 0
    endloop
  endfacet
  facet normal 0 0 -1
    outer loop
      vertex 12.3392 55.6132 0
      vertex 37.855 61.119 0
      vertex 39.533 59.254 0
    endloop
  endfacet
  facet normal 0 0 -1
    outer loop
      vertex 0.476232 53.9464 0
      vertex 39.533 59.254 0
      vertex 40.788 57.082 0
    endloop
  endfacet
  facet normal 0 0 -1
    outer loop
      vertex 0.476232 53.9464 0
      vertex 40.788 57.082 0
      vertex 41.563 54.696 0
    endloop
  endfacet
  facet normal 0 0 -1
    outer loop
      vertex 0.476232 53.9464 0
      vertex 41.563 54.696 0
      vertex 41.572 54.614 0
    endloop
  endfacet
  facet normal -0 0 -1
    outer loop
      vertex 41.572 54.614 0
      vertex 41.603 54.621 0
      vertex 41.987 52.888 0
    endloop
  endfacet
  facet normal 0 0 -1
    outer loop
      vertex 41.572 54.614 0
      vertex 41.987 52.888 0
      vertex 0.476232 53.9464 0
    endloop
  endfacet
  facet normal 0 0 -1
    outer loop
      vertex 41.987 52.888 0
      vertex 42.774 50.392 0
      vertex 0.476232 53.9464 0
    endloop
  endfacet
  facet normal 0 0 -1
    outer loop
      vertex 42.774 50.392 0
      vertex 43.776 47.974 0
      vertex 0.476232 53.9464 0
    endloop
  endfacet
  facet normal 0 -0 -1
    outer loop
      vertex 27.7614 35.4962 0
      vertex 0.476232 53.9464 0
      vertex 35.6117 49.093 0
    endloop
  endfacet
  facet normal 0 0 -1
    outer loop
      vertex 43.4617 35.4964 0
      vertex 55.075 29.25 0
      vertex 27.7614 35.4962 0
    endloop
  endfacet
  facet normal 0 0 -1
    outer loop
      vertex 43.4617 35.4964 0
      vertex 54.813 31.745 0
      vertex 55.075 29.25 0
    endloop
  endfacet
  facet normal 0 0 -1
    outer loop
      vertex 27.7614 35.4962 0
      vertex 55.075 29.25 0
      vertex 55.075 12.25 0
    endloop
  endfacet
  facet normal 0 0 -1
    outer loop
      vertex 0.476232 53.9464 0
      vertex 55.075 12.25 0
      vertex 54.7456 9.6511 0
    endloop
  endfacet
  facet normal 0 0 -1
    outer loop
      vertex 0.476232 53.9464 0
      vertex 54.7456 9.6511 0
      vertex 53.7717 7.16579 0
    endloop
  endfacet
  facet normal 0 0 -1
    outer loop
      vertex 22.088 34.159 0
      vertex 53.7717 7.16579 0
      vertex 52.1959 4.90268 0
    endloop
  endfacet
  facet normal 0 0 -1
    outer loop
      vertex 43.9192 10.8874 0
      vertex 52.1959 4.90268 0
      vertex 50.0871 2.96069 0
    endloop
  endfacet
  facet normal 0 0 -1
    outer loop
      vertex 43.9192 7.11261 0
      vertex 50.0871 2.96069 0
      vertex 47.5375 1.42468 0
    endloop
  endfacet
  facet normal 0 0 -1
    outer loop
      vertex 42.7122 5.59903 0
      vertex 47.5375 1.42468 0
      vertex 44.6584 0.361794 0
    endloop
  endfacet
  facet normal 0 0 -1
    outer loop
      vertex 39.032 4.75906 0
      vertex 44.6584 0.361794 0
      vertex 41.5758 -0.181524 0
    endloop
  endfacet
  facet normal 0 0 -1
    outer loop
      vertex 35.6117 49.093 0
      vertex 54.813 31.745 0
      vertex 43.4617 35.4964 0
    endloop
  endfacet
  facet normal 0 0 -1
    outer loop
      vertex 24.925 12.25 0
      vertex 32.4625 1.42468 0
      vertex 29.9129 2.96069 0
    endloop
  endfacet
  facet normal 0 0 -1
    outer loop
      vertex 25.2544 9.6511 0
      vertex 29.9129 2.96069 0
      vertex 27.8041 4.90268 0
    endloop
  endfacet
  facet normal 0 0 -1
    outer loop
      vertex 24.925 12.25 0
      vertex 29.9129 2.96069 0
      vertex 25.2544 9.6511 0
    endloop
  endfacet
  facet normal 0 0 -1
    outer loop
      vertex 39.032 13.2409 0
      vertex 24.925 27.8015 0
      vertex 24.674 28.788 0
    endloop
  endfacet
  facet normal 0 0 -1
    outer loop
      vertex 43.9192 10.8874 0
      vertex 50.0871 2.96069 0
      vertex 44.35 9 0
    endloop
  endfacet
  facet normal 0 0 -1
    outer loop
      vertex 23.127 32.458 0
      vertex 52.1959 4.90268 0
      vertex 23.993 30.662 0
    endloop
  endfacet
  facet normal 0 0 -1
    outer loop
      vertex 20.884 35.749 0
      vertex 53.7717 7.16579 0
      vertex 22.088 34.159 0
    endloop
  endfacet
  facet normal -0 -0 -1
    outer loop
      vertex 6.02708 44.9822 0
      vertex 0.476232 53.9464 0
      vertex 19.5732 37.1613 0
    endloop
  endfacet
  facet normal 0 0 -1
    outer loop
      vertex 19.5732 37.1613 0
      vertex 53.7717 7.16579 0
      vertex 20.884 35.749 0
    endloop
  endfacet
  facet normal 0 0 -1
    outer loop
      vertex 35.6117 49.093 0
      vertex 51.038 38.216 0
      vertex 51.105 38.168 0
    endloop
  endfacet
  facet normal 0 0 -1
    outer loop
      vertex 0.476232 53.9464 0
      vertex 53.7717 7.16579 0
      vertex 19.5732 37.1613 0
    endloop
  endfacet
  facet normal 0 0 -1
    outer loop
      vertex 35.6117 49.093 0
      vertex 51.105 38.168 0
      vertex 52.783 36.303 0
    endloop
  endfacet
  facet normal 0 -0 -1
    outer loop
      vertex 6.59326 60.9447 0
      vertex 0.476232 53.9464 0
      vertex 7.56122 62.6212 0
    endloop
  endfacet
  facet normal 0 0 -1
    outer loop
      vertex 0.476232 53.9464 0
      vertex 3.94108 46.5669 0
      vertex 2.27568 48.6529 0
    endloop
  endfacet
  facet normal 0 0 -1
    outer loop
      vertex 0.476232 53.9464 0
      vertex 2.27568 48.6529 0
      vertex 1.10365 51.1492 0
    endloop
  endfacet
  facet normal 0 -0 -1
    outer loop
      vertex 6.44859 59.0142 0
      vertex 0.476232 53.9464 0
      vertex 6.59326 60.9447 0
    endloop
  endfacet
  facet normal 0 0 -1
    outer loop
      vertex 9.16077 63.7118 0
      vertex 18.6867 72.107 0
      vertex 11.0751 64.0003 0
    endloop
  endfacet
  facet normal -0 0 -1
    outer loop
      vertex 15.0514 60.3108 0
      vertex 35.8215 62.5946 0
      vertex 14.9067 58.3803 0
    endloop
  endfacet
  facet normal 0 0 -1
    outer loop
      vertex 11.0751 64.0003 0
      vertex 18.6867 72.107 0
      vertex 21.1021 71.0928 0
    endloop
  endfacet
  facet normal 0 0 -1
    outer loop
      vertex 10.4249 55.3246 0
      vertex 0.476232 53.9464 0
      vertex 8.575 55.8953 0
    endloop
  endfacet
  facet normal -0 0 -1
    outer loop
      vertex 13.9388 56.7037 0
      vertex 37.855 61.119 0
      vertex 12.3392 55.6132 0
    endloop
  endfacet
  facet normal 0 0 -1
    outer loop
      vertex 0.476232 53.9464 0
      vertex 10.4249 55.3246 0
      vertex 39.533 59.254 0
    endloop
  endfacet
  facet normal -0 0 -1
    outer loop
      vertex 14.9067 58.3803 0
      vertex 37.855 61.119 0
      vertex 13.9388 56.7037 0
    endloop
  endfacet
  facet normal 0 0 -1
    outer loop
      vertex 10.4249 55.3246 0
      vertex 12.3392 55.6132 0
      vertex 39.533 59.254 0
    endloop
  endfacet
  facet normal 0 0 -1
    outer loop
      vertex 35.6117 49.093 0
      vertex 49.752 39.44 0
      vertex 51.06 38.241 0
    endloop
  endfacet
  facet normal -0 0 -1
    outer loop
      vertex 14.3441 62.1129 0
      vertex 21.1021 71.0928 0
      vertex 15.0514 60.3108 0
    endloop
  endfacet
  facet normal -0 0 -1
    outer loop
      vertex 12.925 63.4297 0
      vertex 21.1021 71.0928 0
      vertex 14.3441 62.1129 0
    endloop
  endfacet
  facet normal -0 0 -1
    outer loop
      vertex 11.0751 64.0003 0
      vertex 21.1021 71.0928 0
      vertex 12.925 63.4297 0
    endloop
  endfacet
  facet normal 0 0 -1
    outer loop
      vertex 14.9067 58.3803 0
      vertex 35.8215 62.5946 0
      vertex 35.825 62.593 0
    endloop
  endfacet
  facet normal 0 0 -1
    outer loop
      vertex 8.575 55.8953 0
      vertex 0.476232 53.9464 0
      vertex 7.15586 57.212 0
    endloop
  endfacet
  facet normal 0 0 -1
    outer loop
      vertex 35.6117 49.093 0
      vertex 47.984 41.369 0
      vertex 49.752 39.44 0
    endloop
  endfacet
  facet normal 0 0 -1
    outer loop
      vertex 7.15586 57.212 0
      vertex 0.476232 53.9464 0
      vertex 6.44859 59.0142 0
    endloop
  endfacet
  facet normal 0 0 -1
    outer loop
      vertex 35.6117 49.093 0
      vertex 46.39 43.446 0
      vertex 47.984 41.369 0
    endloop
  endfacet
  facet normal 0 0 -1
    outer loop
      vertex 7.56122 62.6212 0
      vertex 16.0474 72.5062 0
      vertex 9.16077 63.7118 0
    endloop
  endfacet
  facet normal 0 0 -1
    outer loop
      vertex 0.476232 53.9464 0
      vertex 13.2996 72.2731 0
      vertex 7.56122 62.6212 0
    endloop
  endfacet
  facet normal 0 0 -1
    outer loop
      vertex 43.776 47.974 0
      vertex 44.984 45.653 0
      vertex 35.6117 49.093 0
    endloop
  endfacet
  facet normal 0 0 -1
    outer loop
      vertex 43.776 47.974 0
      vertex 35.6117 49.093 0
      vertex 0.476232 53.9464 0
    endloop
  endfacet
  facet normal 0 0 -1
    outer loop
      vertex 39.032 4.75906 0
      vertex 41.5758 -0.181524 0
      vertex 37.2878 5.59903 0
    endloop
  endfacet
  facet normal 0 0 -1
    outer loop
      vertex 0.476232 53.9464 0
      vertex 27.7614 35.4962 0
      vertex 55.075 12.25 0
    endloop
  endfacet
  facet normal 0 0 -1
    outer loop
      vertex 42.7122 5.59903 0
      vertex 44.6584 0.361794 0
      vertex 40.968 4.75906 0
    endloop
  endfacet
  facet normal 0 0 -1
    outer loop
      vertex 35.6117 49.093 0
      vertex 52.783 36.303 0
      vertex 54.038 34.131 0
    endloop
  endfacet
  facet normal 0 0 -1
    outer loop
      vertex 35.6117 49.093 0
      vertex 54.038 34.131 0
      vertex 54.813 31.745 0
    endloop
  endfacet
  facet normal 0 0 -1
    outer loop
      vertex 36.0808 7.11261 0
      vertex 37.2878 5.59903 0
      vertex 41.5758 -0.181524 0
    endloop
  endfacet
  facet normal 0 0 -1
    outer loop
      vertex 40.968 4.75906 0
      vertex 44.6584 0.361794 0
      vertex 39.032 4.75906 0
    endloop
  endfacet
  facet normal 0 -0 -1
    outer loop
      vertex 37.2878 12.401 0
      vertex 24.925 27.8015 0
      vertex 39.032 13.2409 0
    endloop
  endfacet
  facet normal 0 0 -1
    outer loop
      vertex 43.9192 7.11261 0
      vertex 47.5375 1.42468 0
      vertex 42.7122 5.59903 0
    endloop
  endfacet
  facet normal 0 0 -1
    outer loop
      vertex 44.35 9 0
      vertex 50.0871 2.96069 0
      vertex 43.9192 7.11261 0
    endloop
  endfacet
  facet normal 0 0 -1
    outer loop
      vertex 22.088 34.159 0
      vertex 52.1959 4.90268 0
      vertex 23.127 32.458 0
    endloop
  endfacet
  facet normal 0 0 -1
    outer loop
      vertex 35.6117 49.093 0
      vertex 51.06 38.241 0
      vertex 51.038 38.216 0
    endloop
  endfacet
  facet normal 0 0 -1
    outer loop
      vertex 42.7122 12.401 0
      vertex 52.1959 4.90268 0
      vertex 43.9192 10.8874 0
    endloop
  endfacet
  facet normal -0 -0 -1
    outer loop
      vertex 40.968 13.2409 0
      vertex 23.993 30.662 0
      vertex 42.7122 12.401 0
    endloop
  endfacet
  facet normal 0 0 -1
    outer loop
      vertex 23.993 30.662 0
      vertex 52.1959 4.90268 0
      vertex 42.7122 12.401 0
    endloop
  endfacet
  facet normal -0 -0 -1
    outer loop
      vertex 39.032 13.2409 0
      vertex 23.993 30.662 0
      vertex 40.968 13.2409 0
    endloop
  endfacet
  facet normal 0 0 -1
    outer loop
      vertex 39.032 13.2409 0
      vertex 24.674 28.788 0
      vertex 23.993 30.662 0
    endloop
  endfacet
  facet normal 0 0 -1
    outer loop
      vertex 25.2544 9.6511 0
      vertex 27.8041 4.90268 0
      vertex 26.2283 7.16579 0
    endloop
  endfacet
  facet normal 0 0 -1
    outer loop
      vertex 35.6117 49.093 0
      vertex 44.984 45.653 0
      vertex 46.39 43.446 0
    endloop
  endfacet
  facet normal 0 -0 -1
    outer loop
      vertex 36.0808 10.8874 0
      vertex 24.925 27.8015 0
      vertex 37.2878 12.401 0
    endloop
  endfacet
  facet normal 0 0 -1
    outer loop
      vertex 24.925 27.8015 0
      vertex 36.0808 10.8874 0
      vertex 35.65 9 0
    endloop
  endfacet
  facet normal 0 0 -1
    outer loop
      vertex 24.925 27.8015 0
      vertex 35.65 9 0
      vertex 36.0808 7.11261 0
    endloop
  endfacet
  facet normal 0 0 -1
    outer loop
      vertex 36.0808 7.11261 0
      vertex 41.5758 -0.181524 0
      vertex 38.4242 -0.181524 0
    endloop
  endfacet
  facet normal 0 0 -1
    outer loop
      vertex 24.925 27.8015 0
      vertex 36.0808 7.11261 0
      vertex 38.4242 -0.181524 0
    endloop
  endfacet
  facet normal 0 0 -1
    outer loop
      vertex 24.925 27.8015 0
      vertex 38.4242 -0.181524 0
      vertex 35.3416 0.361794 0
    endloop
  endfacet
  facet normal 0 0 -1
    outer loop
      vertex 24.925 27.8015 0
      vertex 35.3416 0.361794 0
      vertex 32.4625 1.42468 0
    endloop
  endfacet
  facet normal 0 0 -1
    outer loop
      vertex 24.925 27.8015 0
      vertex 32.4625 1.42468 0
      vertex 24.925 12.25 0
    endloop
  endfacet
  facet normal -0 -0 -1
    outer loop
      vertex 3.94108 46.5669 0
      vertex 0.476232 53.9464 0
      vertex 6.02708 44.9822 0
    endloop
  endfacet
  facet normal -0.985595 0.169125 0
    outer loop
      vertex 0.420833 56.9225 0
      vertex 0.420833 56.9225 13.2
      vertex 0.939878 59.9473 0
    endloop
  endfacet
  facet normal -0.985595 0.169125 0
    outer loop
      vertex 0.939878 59.9473 0
      vertex 0.420833 56.9225 13.2
      vertex 0.939878 59.9473 13.2
    endloop
  endfacet
  facet normal -0.999827 -0.0186118 -0
    outer loop
      vertex 0.420833 56.9225 0
      vertex 0.476232 53.9464 0
      vertex 0.420833 56.9225 13.2
    endloop
  endfacet
  facet normal -0.999827 -0.0186118 0
    outer loop
      vertex 0.420833 56.9225 13.2
      vertex 0.476232 53.9464 0
      vertex 0.476232 53.9464 13.2
    endloop
  endfacet
  facet normal -0.975756 -0.218861 -0
    outer loop
      vertex 0.476232 53.9464 0
      vertex 1.10365 51.1492 0
      vertex 0.476232 53.9464 13.2
    endloop
  endfacet
  facet normal -0.975756 -0.218861 0
    outer loop
      vertex 0.476232 53.9464 13.2
      vertex 1.10365 51.1492 0
      vertex 1.10365 51.1492 13.2
    endloop
  endfacet
  facet normal -0.90519 -0.425007 -0
    outer loop
      vertex 1.10365 51.1492 0
      vertex 2.27568 48.6529 0
      vertex 1.10365 51.1492 13.2
    endloop
  endfacet
  facet normal -0.90519 -0.425007 0
    outer loop
      vertex 1.10365 51.1492 13.2
      vertex 2.27568 48.6529 0
      vertex 2.27568 48.6529 13.2
    endloop
  endfacet
  facet normal -0.781497 -0.623909 -0
    outer loop
      vertex 2.27568 48.6529 0
      vertex 3.94108 46.5669 0
      vertex 2.27568 48.6529 13.2
    endloop
  endfacet
  facet normal -0.781497 -0.623909 0
    outer loop
      vertex 2.27568 48.6529 13.2
      vertex 3.94108 46.5669 0
      vertex 3.94108 46.5669 13.2
    endloop
  endfacet
  facet normal -0.604933 -0.796276 0
    outer loop
      vertex 3.94108 46.5669 13.2
      vertex 3.94108 46.5669 0
      vertex 6.02708 44.9822 0
    endloop
  endfacet
  facet normal -0.604933 -0.796276 0
    outer loop
      vertex 6.02708 44.9822 13.2
      vertex 3.94108 46.5669 13.2
      vertex 6.02708 44.9822 0
    endloop
  endfacet
  facet normal -0.5 -0.866025 -1.61584e-16
    outer loop
      vertex 14.2266 40.2482 2.359
      vertex 6.02708 44.9822 0
      vertex 19.5732 37.1613 0
    endloop
  endfacet
  facet normal -0.5 -0.866025 2.80026e-16
    outer loop
      vertex 17.1555 38.5572 6.6
      vertex 16.7823 38.7727 4.713
      vertex 19.5732 37.1613 0
    endloop
  endfacet
  facet normal -0.5 -0.866025 0
    outer loop
      vertex 6.02708 44.9822 13.2
      vertex 6.02708 44.9822 0
      vertex 9.99434 42.6917 4.713
    endloop
  endfacet
  facet normal -0.5 -0.866025 4.39625e-15
    outer loop
      vertex 6.02708 44.9822 13.2
      vertex 9.99434 42.6917 4.713
      vertex 9.62109 42.9072 6.6
    endloop
  endfacet
  facet normal -0.5 -0.866025 -2.05343e-15
    outer loop
      vertex 6.02708 44.9822 13.2
      vertex 9.62109 42.9072 6.6
      vertex 9.99434 42.6917 8.487
    endloop
  endfacet
  facet normal -0.5 -0.866025 8.29803e-15
    outer loop
      vertex 16.6047 38.8752 8.744
      vertex 16.7823 38.7727 8.487
      vertex 16.6506 38.8487 8.775
    endloop
  endfacet
  facet normal -0.5 -0.866025 -1.50563e-14
    outer loop
      vertex 10.126 42.6157 8.775
      vertex 9.99434 42.6917 8.487
      vertex 10.1719 42.5892 8.744
    endloop
  endfacet
  facet normal -0.5 -0.866025 -2.19173e-15
    outer loop
      vertex 6.02708 44.9822 13.2
      vertex 9.99434 42.6917 8.487
      vertex 10.126 42.6157 8.775
    endloop
  endfacet
  facet normal -0.5 -0.866025 4.41545e-16
    outer loop
      vertex 19.5732 37.1613 13.2
      vertex 6.02708 44.9822 13.2
      vertex 11.5047 41.8197 10.95
    endloop
  endfacet
  facet normal -0.5 -0.866025 -2.89874e-15
    outer loop
      vertex 19.5732 37.1613 13.2
      vertex 11.5047 41.8197 10.95
      vertex 15.2719 39.6447 10.95
    endloop
  endfacet
  facet normal -0.5 -0.866025 -4.6538e-16
    outer loop
      vertex 19.5732 37.1613 13.2
      vertex 15.2719 39.6447 10.95
      vertex 16.6506 38.8487 8.775
    endloop
  endfacet
  facet normal -0.5 -0.866025 -9.37429e-16
    outer loop
      vertex 16.7823 38.7727 8.487
      vertex 17.1555 38.5572 6.6
      vertex 19.5732 37.1613 0
    endloop
  endfacet
  facet normal -0.5 -0.866025 0
    outer loop
      vertex 19.5732 37.1613 13.2
      vertex 16.7823 38.7727 8.487
      vertex 19.5732 37.1613 0
    endloop
  endfacet
  facet normal -0.5 -0.866025 1.75317e-15
    outer loop
      vertex 19.5732 37.1613 13.2
      vertex 16.6506 38.8487 8.775
      vertex 16.7823 38.7727 8.487
    endloop
  endfacet
  facet normal -0.5 -0.866025 4.57428e-15
    outer loop
      vertex 12.55 41.2162 2.359
      vertex 6.02708 44.9822 0
      vertex 14.2266 40.2482 2.359
    endloop
  endfacet
  facet normal -0.5 -0.866025 6.42901e-16
    outer loop
      vertex 11.0396 42.0882 3.199
      vertex 6.02708 44.9822 0
      vertex 12.55 41.2162 2.359
    endloop
  endfacet
  facet normal -0.5 -0.866025 -1.10309e-15
    outer loop
      vertex 9.99434 42.6917 4.713
      vertex 6.02708 44.9822 0
      vertex 11.0396 42.0882 3.199
    endloop
  endfacet
  facet normal -0.5 -0.866025 2.19055e-16
    outer loop
      vertex 15.737 39.3762 3.199
      vertex 14.2266 40.2482 2.359
      vertex 19.5732 37.1613 0
    endloop
  endfacet
  facet normal -0.5 -0.866025 2.88764e-16
    outer loop
      vertex 10.126 42.6157 8.775
      vertex 11.5047 41.8197 10.95
      vertex 6.02708 44.9822 13.2
    endloop
  endfacet
  facet normal -0.5 -0.866025 8.484e-16
    outer loop
      vertex 16.7823 38.7727 4.713
      vertex 15.737 39.3762 3.199
      vertex 19.5732 37.1613 0
    endloop
  endfacet
  facet normal -0.732954 -0.680278 -0
    outer loop
      vertex 19.5732 37.1613 0
      vertex 20.884 35.749 0
      vertex 19.5732 37.1613 13.2
    endloop
  endfacet
  facet normal -0.732954 -0.680278 0
    outer loop
      vertex 19.5732 37.1613 13.2
      vertex 20.884 35.749 0
      vertex 20.884 35.749 13.2
    endloop
  endfacet
  facet normal -0.797224 -0.603684 -0
    outer loop
      vertex 20.884 35.749 0
      vertex 22.088 34.159 0
      vertex 20.884 35.749 13.2
    endloop
  endfacet
  facet normal -0.797224 -0.603684 0
    outer loop
      vertex 20.884 35.749 13.2
      vertex 22.088 34.159 0
      vertex 22.088 34.159 13.2
    endloop
  endfacet
  facet normal -0.853393 -0.521267 -0
    outer loop
      vertex 22.088 34.159 0
      vertex 23.127 32.458 0
      vertex 22.088 34.159 13.2
    endloop
  endfacet
  facet normal -0.853393 -0.521267 0
    outer loop
      vertex 22.088 34.159 13.2
      vertex 23.127 32.458 0
      vertex 23.127 32.458 13.2
    endloop
  endfacet
  facet normal -0.900755 -0.434328 -0
    outer loop
      vertex 23.127 32.458 0
      vertex 23.993 30.662 0
      vertex 23.127 32.458 13.2
    endloop
  endfacet
  facet normal -0.900755 -0.434328 0
    outer loop
      vertex 23.127 32.458 13.2
      vertex 23.993 30.662 0
      vertex 23.993 30.662 13.2
    endloop
  endfacet
  facet normal -0.939867 -0.341542 -0
    outer loop
      vertex 23.993 30.662 0
      vertex 24.674 28.788 0
      vertex 23.993 30.662 13.2
    endloop
  endfacet
  facet normal -0.939867 -0.341542 0
    outer loop
      vertex 23.993 30.662 13.2
      vertex 24.674 28.788 0
      vertex 24.674 28.788 13.2
    endloop
  endfacet
  facet normal -0.969126 -0.246567 -0
    outer loop
      vertex 24.674 28.788 0
      vertex 24.925 27.8015 0
      vertex 24.674 28.788 13.2
    endloop
  endfacet
  facet normal -0.969126 -0.246567 0
    outer loop
      vertex 24.674 28.788 13.2
      vertex 24.925 27.8015 0
      vertex 24.925 27.8015 13.2
    endloop
  endfacet
  facet normal -1 0 -0
    outer loop
      vertex 24.925 22.925 10.95
      vertex 24.925 12.25 13.2
      vertex 24.925 27.8015 13.2
    endloop
  endfacet
  facet normal -1 0 -0
    outer loop
      vertex 24.925 12.25 0
      vertex 24.925 12.25 13.2
      vertex 24.925 16.4 6.6
    endloop
  endfacet
  facet normal -1 0 0
    outer loop
      vertex 24.925 12.25 0
      vertex 24.925 16.4 6.6
      vertex 24.925 16.831 4.713
    endloop
  endfacet
  facet normal -1 0 0
    outer loop
      vertex 24.925 12.25 0
      vertex 24.925 16.831 4.713
      vertex 24.925 18.038 3.199
    endloop
  endfacet
  facet normal -1 0 0
    outer loop
      vertex 24.925 12.25 0
      vertex 24.925 18.038 3.199
      vertex 24.925 19.782 2.359
    endloop
  endfacet
  facet normal -1 -0 0
    outer loop
      vertex 24.925 12.25 0
      vertex 24.925 19.782 2.359
      vertex 24.925 27.8015 0
    endloop
  endfacet
  facet normal -1 0 0
    outer loop
      vertex 24.925 23.462 3.199
      vertex 24.925 27.8015 0
      vertex 24.925 21.718 2.359
    endloop
  endfacet
  facet normal -1 0 0
    outer loop
      vertex 24.925 24.669 4.713
      vertex 24.925 27.8015 0
      vertex 24.925 23.462 3.199
    endloop
  endfacet
  facet normal -1 -0 0
    outer loop
      vertex 24.925 22.925 10.95
      vertex 24.925 27.8015 13.2
      vertex 24.925 24.517 8.775
    endloop
  endfacet
  facet normal -1 0 0
    outer loop
      vertex 24.925 27.8015 0
      vertex 24.925 24.669 4.713
      vertex 24.925 27.8015 13.2
    endloop
  endfacet
  facet normal -1 0 0
    outer loop
      vertex 24.925 24.669 4.713
      vertex 24.925 25.1 6.6
      vertex 24.925 27.8015 13.2
    endloop
  endfacet
  facet normal -1 0 -0
    outer loop
      vertex 24.925 25.1 6.6
      vertex 24.925 24.669 8.487
      vertex 24.925 27.8015 13.2
    endloop
  endfacet
  facet normal -1 0 0
    outer loop
      vertex 24.925 24.669 8.487
      vertex 24.925 24.464 8.744
      vertex 24.925 24.517 8.775
    endloop
  endfacet
  facet normal -1 0 -0
    outer loop
      vertex 24.925 24.669 8.487
      vertex 24.925 24.517 8.775
      vertex 24.925 27.8015 13.2
    endloop
  endfacet
  facet normal -1 -0 -0
    outer loop
      vertex 24.925 18.575 10.95
      vertex 24.925 12.25 13.2
      vertex 24.925 22.925 10.95
    endloop
  endfacet
  facet normal -1 0 -0
    outer loop
      vertex 24.925 16.983 8.775
      vertex 24.925 12.25 13.2
      vertex 24.925 18.575 10.95
    endloop
  endfacet
  facet normal -1 0 -0
    outer loop
      vertex 24.925 16.831 8.487
      vertex 24.925 12.25 13.2
      vertex 24.925 16.983 8.775
    endloop
  endfacet
  facet normal -1 0 0
    outer loop
      vertex 24.925 16.831 8.487
      vertex 24.925 16.983 8.775
      vertex 24.925 17.036 8.744
    endloop
  endfacet
  facet normal -1 0 -0
    outer loop
      vertex 24.925 16.4 6.6
      vertex 24.925 12.25 13.2
      vertex 24.925 16.831 8.487
    endloop
  endfacet
  facet normal -1 0 0
    outer loop
      vertex 24.925 21.718 2.359
      vertex 24.925 27.8015 0
      vertex 24.925 19.782 2.359
    endloop
  endfacet
  facet normal -0.992062 -0.12575 -0
    outer loop
      vertex 24.925 12.25 0
      vertex 25.2544 9.6511 0
      vertex 24.925 12.25 13.2
    endloop
  endfacet
  facet normal -0.992062 -0.12575 0
    outer loop
      vertex 24.925 12.25 13.2
      vertex 25.2544 9.6511 0
      vertex 25.2544 9.6511 13.2
    endloop
  endfacet
  facet normal -0.931069 -0.364842 -0
    outer loop
      vertex 25.2544 9.6511 0
      vertex 26.2283 7.16579 0
      vertex 25.2544 9.6511 13.2
    endloop
  endfacet
  facet normal -0.931069 -0.364842 0
    outer loop
      vertex 25.2544 9.6511 13.2
      vertex 26.2283 7.16579 0
      vertex 26.2283 7.16579 13.2
    endloop
  endfacet
  facet normal -0.820662 -0.571414 -0
    outer loop
      vertex 26.2283 7.16579 0
      vertex 27.8041 4.90268 0
      vertex 26.2283 7.16579 13.2
    endloop
  endfacet
  facet normal -0.820662 -0.571414 0
    outer loop
      vertex 26.2283 7.16579 13.2
      vertex 27.8041 4.90268 0
      vertex 27.8041 4.90268 13.2
    endloop
  endfacet
  facet normal -0.677417 -0.735599 0
    outer loop
      vertex 27.8041 4.90268 13.2
      vertex 27.8041 4.90268 0
      vertex 29.9129 2.96069 0
    endloop
  endfacet
  facet normal -0.677417 -0.735599 0
    outer loop
      vertex 29.9129 2.96069 13.2
      vertex 27.8041 4.90268 13.2
      vertex 29.9129 2.96069 0
    endloop
  endfacet
  facet normal -0.516032 -0.856569 0
    outer loop
      vertex 29.9129 2.96069 13.2
      vertex 29.9129 2.96069 0
      vertex 32.4625 1.42468 0
    endloop
  endfacet
  facet normal -0.516032 -0.856569 0
    outer loop
      vertex 32.4625 1.42468 13.2
      vertex 29.9129 2.96069 13.2
      vertex 32.4625 1.42468 0
    endloop
  endfacet
  facet normal -0.346331 -0.938113 0
    outer loop
      vertex 32.4625 1.42468 13.2
      vertex 32.4625 1.42468 0
      vertex 35.3416 0.361794 0
    endloop
  endfacet
  facet normal -0.346331 -0.938113 0
    outer loop
      vertex 35.3416 0.361794 13.2
      vertex 32.4625 1.42468 13.2
      vertex 35.3416 0.361794 0
    endloop
  endfacet
  facet normal -0.173574 -0.984821 0
    outer loop
      vertex 35.3416 0.361794 13.2
      vertex 35.3416 0.361794 0
      vertex 38.4242 -0.181524 0
    endloop
  endfacet
  facet normal -0.173574 -0.984821 0
    outer loop
      vertex 38.4242 -0.181524 13.2
      vertex 35.3416 0.361794 13.2
      vertex 38.4242 -0.181524 0
    endloop
  endfacet
  facet normal 0 -1 0
    outer loop
      vertex 38.4242 -0.181524 13.2
      vertex 38.4242 -0.181524 0
      vertex 41.5758 -0.181524 0
    endloop
  endfacet
  facet normal 0 -1 0
    outer loop
      vertex 41.5758 -0.181524 13.2
      vertex 38.4242 -0.181524 13.2
      vertex 41.5758 -0.181524 0
    endloop
  endfacet
  facet normal 0.173574 -0.984821 0
    outer loop
      vertex 41.5758 -0.181524 13.2
      vertex 41.5758 -0.181524 0
      vertex 44.6584 0.361794 0
    endloop
  endfacet
  facet normal 0.173574 -0.984821 0
    outer loop
      vertex 44.6584 0.361794 13.2
      vertex 41.5758 -0.181524 13.2
      vertex 44.6584 0.361794 0
    endloop
  endfacet
  facet normal 0.346331 -0.938113 0
    outer loop
      vertex 44.6584 0.361794 13.2
      vertex 44.6584 0.361794 0
      vertex 47.5375 1.42468 0
    endloop
  endfacet
  facet normal 0.346331 -0.938113 0
    outer loop
      vertex 47.5375 1.42468 13.2
      vertex 44.6584 0.361794 13.2
      vertex 47.5375 1.42468 0
    endloop
  endfacet
  facet normal 0.516032 -0.856569 0
    outer loop
      vertex 47.5375 1.42468 13.2
      vertex 47.5375 1.42468 0
      vertex 50.0871 2.96069 0
    endloop
  endfacet
  facet normal 0.516032 -0.856569 0
    outer loop
      vertex 50.0871 2.96069 13.2
      vertex 47.5375 1.42468 13.2
      vertex 50.0871 2.96069 0
    endloop
  endfacet
  facet normal 0.677417 -0.735599 0
    outer loop
      vertex 50.0871 2.96069 13.2
      vertex 50.0871 2.96069 0
      vertex 52.1959 4.90268 0
    endloop
  endfacet
  facet normal 0.677417 -0.735599 0
    outer loop
      vertex 52.1959 4.90268 13.2
      vertex 50.0871 2.96069 13.2
      vertex 52.1959 4.90268 0
    endloop
  endfacet
  facet normal 0.820662 -0.571414 0
    outer loop
      vertex 52.1959 4.90268 13.2
      vertex 52.1959 4.90268 0
      vertex 53.7717 7.16579 0
    endloop
  endfacet
  facet normal 0.820662 -0.571414 0
    outer loop
      vertex 53.7717 7.16579 13.2
      vertex 52.1959 4.90268 13.2
      vertex 53.7717 7.16579 0
    endloop
  endfacet
  facet normal 0.931069 -0.364842 0
    outer loop
      vertex 53.7717 7.16579 13.2
      vertex 53.7717 7.16579 0
      vertex 54.7456 9.6511 0
    endloop
  endfacet
  facet normal 0.931069 -0.364842 0
    outer loop
      vertex 54.7456 9.6511 13.2
      vertex 53.7717 7.16579 13.2
      vertex 54.7456 9.6511 0
    endloop
  endfacet
  facet normal 0.992062 -0.12575 0
    outer loop
      vertex 54.7456 9.6511 13.2
      vertex 54.7456 9.6511 0
      vertex 55.075 12.25 0
    endloop
  endfacet
  facet normal 0.992062 -0.12575 0
    outer loop
      vertex 55.075 12.25 13.2
      vertex 54.7456 9.6511 13.2
      vertex 55.075 12.25 0
    endloop
  endfacet
  facet normal 1 0 -0
    outer loop
      vertex 55.075 21.718 2.359
      vertex 55.075 12.25 0
      vertex 55.075 29.25 0
    endloop
  endfacet
  facet normal 1 0 -0
    outer loop
      vertex 55.075 12.25 13.2
      vertex 55.075 12.25 0
      vertex 55.075 16.831 4.713
    endloop
  endfacet
  facet normal 1 0 0
    outer loop
      vertex 55.075 12.25 13.2
      vertex 55.075 16.831 4.713
      vertex 55.075 16.4 6.6
    endloop
  endfacet
  facet normal 1 0 0
    outer loop
      vertex 55.075 12.25 13.2
      vertex 55.075 16.4 6.6
      vertex 55.075 16.831 8.487
    endloop
  endfacet
  facet normal 1 0 -0
    outer loop
      vertex 55.075 16.983 8.775
      vertex 55.075 16.831 8.487
      vertex 55.075 17.036 8.744
    endloop
  endfacet
  facet normal 1 0 0
    outer loop
      vertex 55.075 24.669 8.487
      vertex 55.075 25.1 6.6
      vertex 55.075 29.25 0
    endloop
  endfacet
  facet normal 1 0 0
    outer loop
      vertex 55.075 12.25 13.2
      vertex 55.075 16.831 8.487
      vertex 55.075 16.983 8.775
    endloop
  endfacet
  facet normal 1 0 0
    outer loop
      vertex 55.075 29.25 13.2
      vertex 55.075 12.25 13.2
      vertex 55.075 18.575 10.95
    endloop
  endfacet
  facet normal 1 0 0
    outer loop
      vertex 55.075 29.25 13.2
      vertex 55.075 18.575 10.95
      vertex 55.075 22.925 10.95
    endloop
  endfacet
  facet normal 1 0 0
    outer loop
      vertex 55.075 29.25 13.2
      vertex 55.075 24.517 8.775
      vertex 55.075 29.25 0
    endloop
  endfacet
  facet normal 1 0 0
    outer loop
      vertex 55.075 29.25 13.2
      vertex 55.075 22.925 10.95
      vertex 55.075 24.517 8.775
    endloop
  endfacet
  facet normal 1 0 0
    outer loop
      vertex 55.075 24.517 8.775
      vertex 55.075 24.669 8.487
      vertex 55.075 29.25 0
    endloop
  endfacet
  facet normal 1 0 -0
    outer loop
      vertex 55.075 24.517 8.775
      vertex 55.075 24.464 8.744
      vertex 55.075 24.669 8.487
    endloop
  endfacet
  facet normal 1 0 -0
    outer loop
      vertex 55.075 25.1 6.6
      vertex 55.075 24.669 4.713
      vertex 55.075 29.25 0
    endloop
  endfacet
  facet normal 1 0 -0
    outer loop
      vertex 55.075 19.782 2.359
      vertex 55.075 12.25 0
      vertex 55.075 21.718 2.359
    endloop
  endfacet
  facet normal 1 0 -0
    outer loop
      vertex 55.075 18.038 3.199
      vertex 55.075 12.25 0
      vertex 55.075 19.782 2.359
    endloop
  endfacet
  facet normal 1 0 -0
    outer loop
      vertex 55.075 16.831 4.713
      vertex 55.075 12.25 0
      vertex 55.075 18.038 3.199
    endloop
  endfacet
  facet normal 1 0 -0
    outer loop
      vertex 55.075 23.462 3.199
      vertex 55.075 21.718 2.359
      vertex 55.075 29.25 0
    endloop
  endfacet
  facet normal 1 0 0
    outer loop
      vertex 55.075 16.983 8.775
      vertex 55.075 18.575 10.95
      vertex 55.075 12.25 13.2
    endloop
  endfacet
  facet normal 1 0 -0
    outer loop
      vertex 55.075 24.669 4.713
      vertex 55.075 23.462 3.199
      vertex 55.075 29.25 0
    endloop
  endfacet
  facet normal 0.994532 0.104436 0
    outer loop
      vertex 55.075 29.25 0
      vertex 54.813 31.745 0
      vertex 54.813 31.745 13.2
    endloop
  endfacet
  facet normal 0.994532 0.104436 -0
    outer loop
      vertex 55.075 29.25 13.2
      vertex 55.075 29.25 0
      vertex 54.813 31.745 13.2
    endloop
  endfacet
  facet normal 0.951087 0.308924 0
    outer loop
      vertex 54.813 31.745 0
      vertex 54.038 34.131 0
      vertex 54.038 34.131 13.2
    endloop
  endfacet
  facet normal 0.951087 0.308924 -0
    outer loop
      vertex 54.813 31.745 13.2
      vertex 54.813 31.745 0
      vertex 54.038 34.131 13.2
    endloop
  endfacet
  facet normal 0.865854 0.500298 0
    outer loop
      vertex 54.038 34.131 0
      vertex 52.783 36.303 0
      vertex 52.783 36.303 13.2
    endloop
  endfacet
  facet normal 0.865854 0.500298 -0
    outer loop
      vertex 54.038 34.131 13.2
      vertex 54.038 34.131 0
      vertex 52.783 36.303 13.2
    endloop
  endfacet
  facet normal 0.743393 0.668855 0
    outer loop
      vertex 52.783 36.303 0
      vertex 51.105 38.168 0
      vertex 51.105 38.168 13.2
    endloop
  endfacet
  facet normal 0.743393 0.668855 -0
    outer loop
      vertex 52.783 36.303 13.2
      vertex 52.783 36.303 0
      vertex 51.105 38.168 13.2
    endloop
  endfacet
  facet normal 0.582385 0.812913 0
    outer loop
      vertex 51.038 38.216 0
      vertex 51.038 38.216 13.2
      vertex 51.105 38.168 0
    endloop
  endfacet
  facet normal 0.582385 0.812913 0
    outer loop
      vertex 51.105 38.168 0
      vertex 51.038 38.216 13.2
      vertex 51.105 38.168 13.2
    endloop
  endfacet
  facet normal 0.750714 -0.660628 0
    outer loop
      vertex 51.038 38.216 13.2
      vertex 51.038 38.216 0
      vertex 51.06 38.241 0
    endloop
  endfacet
  facet normal 0.750714 -0.660628 0
    outer loop
      vertex 51.06 38.241 13.2
      vertex 51.038 38.216 13.2
      vertex 51.06 38.241 0
    endloop
  endfacet
  facet normal 0.675725 0.737154 0
    outer loop
      vertex 49.752 39.44 0
      vertex 49.752 39.44 13.2
      vertex 51.06 38.241 0
    endloop
  endfacet
  facet normal 0.675725 0.737154 0
    outer loop
      vertex 51.06 38.241 0
      vertex 49.752 39.44 13.2
      vertex 51.06 38.241 13.2
    endloop
  endfacet
  facet normal 0.737202 0.675673 0
    outer loop
      vertex 49.752 39.44 0
      vertex 47.984 41.369 0
      vertex 47.984 41.369 13.2
    endloop
  endfacet
  facet normal 0.737202 0.675673 -0
    outer loop
      vertex 49.752 39.44 13.2
      vertex 49.752 39.44 0
      vertex 47.984 41.369 13.2
    endloop
  endfacet
  facet normal 0.793305 0.608824 0
    outer loop
      vertex 47.984 41.369 0
      vertex 46.39 43.446 0
      vertex 46.39 43.446 13.2
    endloop
  endfacet
  facet normal 0.793305 0.608824 -0
    outer loop
      vertex 47.984 41.369 13.2
      vertex 47.984 41.369 0
      vertex 46.39 43.446 13.2
    endloop
  endfacet
  facet normal 0.843394 0.537296 0
    outer loop
      vertex 46.39 43.446 0
      vertex 44.984 45.653 0
      vertex 44.984 45.653 13.2
    endloop
  endfacet
  facet normal 0.843394 0.537296 -0
    outer loop
      vertex 46.39 43.446 13.2
      vertex 46.39 43.446 0
      vertex 44.984 45.653 13.2
    endloop
  endfacet
  facet normal 0.887048 0.461678 0
    outer loop
      vertex 44.984 45.653 0
      vertex 43.776 47.974 0
      vertex 43.776 47.974 13.2
    endloop
  endfacet
  facet normal 0.887048 0.461678 -0
    outer loop
      vertex 44.984 45.653 13.2
      vertex 44.984 45.653 0
      vertex 43.776 47.974 13.2
    endloop
  endfacet
  facet normal 0.923821 0.382824 0
    outer loop
      vertex 43.776 47.974 0
      vertex 42.774 50.392 0
      vertex 42.774 50.392 13.2
    endloop
  endfacet
  facet normal 0.923821 0.382824 -0
    outer loop
      vertex 43.776 47.974 13.2
      vertex 43.776 47.974 0
      vertex 42.774 50.392 13.2
    endloop
  endfacet
  facet normal 0.953715 0.300711 0
    outer loop
      vertex 42.774 50.392 0
      vertex 41.987 52.888 0
      vertex 41.987 52.888 13.2
    endloop
  endfacet
  facet normal 0.953715 0.300711 -0
    outer loop
      vertex 42.774 50.392 13.2
      vertex 42.774 50.392 0
      vertex 41.987 52.888 13.2
    endloop
  endfacet
  facet normal 0.976319 0.216334 0
    outer loop
      vertex 41.987 52.888 0
      vertex 41.603 54.621 0
      vertex 41.603 54.621 13.2
    endloop
  endfacet
  facet normal 0.976319 0.216334 -0
    outer loop
      vertex 41.987 52.888 13.2
      vertex 41.987 52.888 0
      vertex 41.603 54.621 13.2
    endloop
  endfacet
  facet normal -0.220261 0.975441 0
    outer loop
      vertex 41.572 54.614 0
      vertex 41.572 54.614 13.2
      vertex 41.603 54.621 0
    endloop
  endfacet
  facet normal -0.220261 0.975441 0
    outer loop
      vertex 41.603 54.621 0
      vertex 41.572 54.614 13.2
      vertex 41.603 54.621 13.2
    endloop
  endfacet
  facet normal 0.994031 0.109101 0
    outer loop
      vertex 41.572 54.614 0
      vertex 41.563 54.696 0
      vertex 41.563 54.696 13.2
    endloop
  endfacet
  facet normal 0.994031 0.109101 -0
    outer loop
      vertex 41.572 54.614 13.2
      vertex 41.572 54.614 0
      vertex 41.563 54.696 13.2
    endloop
  endfacet
  facet normal 0.951087 0.308924 0
    outer loop
      vertex 41.563 54.696 0
      vertex 40.788 57.082 0
      vertex 40.788 57.082 13.2
    endloop
  endfacet
  facet normal 0.951087 0.308924 -0
    outer loop
      vertex 41.563 54.696 13.2
      vertex 41.563 54.696 0
      vertex 40.788 57.082 13.2
    endloop
  endfacet
  facet normal 0.865854 0.500298 0
    outer loop
      vertex 40.788 57.082 0
      vertex 39.533 59.254 0
      vertex 39.533 59.254 13.2
    endloop
  endfacet
  facet normal 0.865854 0.500298 -0
    outer loop
      vertex 40.788 57.082 13.2
      vertex 40.788 57.082 0
      vertex 39.533 59.254 13.2
    endloop
  endfacet
  facet normal 0.743393 0.668855 0
    outer loop
      vertex 39.533 59.254 0
      vertex 37.855 61.119 0
      vertex 37.855 61.119 13.2
    endloop
  endfacet
  facet normal 0.743393 0.668855 -0
    outer loop
      vertex 39.533 59.254 13.2
      vertex 39.533 59.254 0
      vertex 37.855 61.119 13.2
    endloop
  endfacet
  facet normal 0.587555 0.809184 0
    outer loop
      vertex 35.825 62.593 0
      vertex 35.825 62.593 13.2
      vertex 37.855 61.119 0
    endloop
  endfacet
  facet normal 0.587555 0.809184 0
    outer loop
      vertex 37.855 61.119 0
      vertex 35.825 62.593 13.2
      vertex 37.855 61.119 13.2
    endloop
  endfacet
  facet normal 0.406915 0.913466 0
    outer loop
      vertex 35.8215 62.5946 0
      vertex 35.8215 62.5946 13.2
      vertex 35.825 62.593 0
    endloop
  endfacet
  facet normal 0.406915 0.913466 0
    outer loop
      vertex 35.825 62.593 0
      vertex 35.8215 62.5946 13.2
      vertex 35.825 62.593 13.2
    endloop
  endfacet
  facet normal 0.5 0.866025 -2.95907e-15
    outer loop
      vertex 30.3469 65.7553 10.95
      vertex 21.1021 71.0928 13.2
      vertex 35.8215 62.5946 13.2
    endloop
  endfacet
  facet normal 0.5 0.866025 0
    outer loop
      vertex 21.1021 71.0928 0
      vertex 21.1021 71.0928 13.2
      vertex 24.6961 69.0178 6.6
    endloop
  endfacet
  facet normal 0.5 0.866025 -2.18619e-15
    outer loop
      vertex 21.1021 71.0928 0
      vertex 24.6961 69.0178 6.6
      vertex 25.0693 68.8023 4.713
    endloop
  endfacet
  facet normal 0.5 0.866025 1.69141e-15
    outer loop
      vertex 21.1021 71.0928 0
      vertex 25.0693 68.8023 4.713
      vertex 26.1146 68.1988 3.199
    endloop
  endfacet
  facet normal 0.5 0.866025 8.77249e-16
    outer loop
      vertex 21.1021 71.0928 0
      vertex 26.1146 68.1988 3.199
      vertex 27.625 67.3268 2.359
    endloop
  endfacet
  facet normal 0.5 0.866025 2.0629e-15
    outer loop
      vertex 21.1021 71.0928 0
      vertex 27.625 67.3268 2.359
      vertex 35.8215 62.5946 0
    endloop
  endfacet
  facet normal 0.5 0.866025 2.47606e-15
    outer loop
      vertex 30.812 65.4868 3.199
      vertex 35.8215 62.5946 0
      vertex 29.3016 66.3588 2.359
    endloop
  endfacet
  facet normal 0.5 0.866025 -3.35117e-16
    outer loop
      vertex 31.8573 64.8833 4.713
      vertex 35.8215 62.5946 0
      vertex 30.812 65.4868 3.199
    endloop
  endfacet
  facet normal 0.5 0.866025 2.03842e-15
    outer loop
      vertex 30.3469 65.7553 10.95
      vertex 35.8215 62.5946 13.2
      vertex 31.7256 64.9593 8.775
    endloop
  endfacet
  facet normal 0.5 0.866025 0
    outer loop
      vertex 35.8215 62.5946 0
      vertex 31.8573 64.8833 4.713
      vertex 35.8215 62.5946 13.2
    endloop
  endfacet
  facet normal 0.5 0.866025 -5.40278e-15
    outer loop
      vertex 31.8573 64.8833 4.713
      vertex 32.2305 64.6678 6.6
      vertex 35.8215 62.5946 13.2
    endloop
  endfacet
  facet normal 0.5 0.866025 2.52179e-15
    outer loop
      vertex 32.2305 64.6678 6.6
      vertex 31.8573 64.8833 8.487
      vertex 35.8215 62.5946 13.2
    endloop
  endfacet
  facet normal 0.5 0.866025 -2.46243e-14
    outer loop
      vertex 31.8573 64.8833 8.487
      vertex 31.6797 64.9858 8.744
      vertex 31.7256 64.9593 8.775
    endloop
  endfacet
  facet normal 0.5 0.866025 -1.66344e-14
    outer loop
      vertex 31.8573 64.8833 8.487
      vertex 31.7256 64.9593 8.775
      vertex 35.8215 62.5946 13.2
    endloop
  endfacet
  facet normal 0.5 0.866025 -3.90155e-15
    outer loop
      vertex 26.5797 67.9303 10.95
      vertex 21.1021 71.0928 13.2
      vertex 30.3469 65.7553 10.95
    endloop
  endfacet
  facet normal 0.5 0.866025 1.14852e-15
    outer loop
      vertex 25.201 68.7263 8.775
      vertex 21.1021 71.0928 13.2
      vertex 26.5797 67.9303 10.95
    endloop
  endfacet
  facet normal 0.5 0.866025 -1.2115e-14
    outer loop
      vertex 25.0693 68.8023 8.487
      vertex 21.1021 71.0928 13.2
      vertex 25.201 68.7263 8.775
    endloop
  endfacet
  facet normal 0.5 0.866025 -8.02828e-15
    outer loop
      vertex 25.0693 68.8023 8.487
      vertex 25.201 68.7263 8.775
      vertex 25.2469 68.6998 8.744
    endloop
  endfacet
  facet normal 0.5 0.866025 2.18618e-15
    outer loop
      vertex 24.6961 69.0178 6.6
      vertex 21.1021 71.0928 13.2
      vertex 25.0693 68.8023 8.487
    endloop
  endfacet
  facet normal 0.5 0.866025 7.59825e-15
    outer loop
      vertex 29.3016 66.3588 2.359
      vertex 35.8215 62.5946 0
      vertex 27.625 67.3268 2.359
    endloop
  endfacet
  facet normal 0.387129 0.922026 0
    outer loop
      vertex 18.6867 72.107 0
      vertex 18.6867 72.107 13.2
      vertex 21.1021 71.0928 0
    endloop
  endfacet
  facet normal 0.387129 0.922026 0
    outer loop
      vertex 21.1021 71.0928 0
      vertex 18.6867 72.107 13.2
      vertex 21.1021 71.0928 13.2
    endloop
  endfacet
  facet normal 0.149572 0.988751 0
    outer loop
      vertex 16.0474 72.5062 0
      vertex 16.0474 72.5062 13.2
      vertex 18.6867 72.107 0
    endloop
  endfacet
  facet normal 0.149572 0.988751 0
    outer loop
      vertex 18.6867 72.107 0
      vertex 16.0474 72.5062 13.2
      vertex 18.6867 72.107 13.2
    endloop
  endfacet
  facet normal -0.0845283 0.996421 0
    outer loop
      vertex 13.2996 72.2731 0
      vertex 13.2996 72.2731 13.2
      vertex 16.0474 72.5062 0
    endloop
  endfacet
  facet normal -0.0845283 0.996421 0
    outer loop
      vertex 16.0474 72.5062 0
      vertex 13.2996 72.2731 13.2
      vertex 16.0474 72.5062 13.2
    endloop
  endfacet
  facet normal -0.298339 0.95446 0
    outer loop
      vertex 10.5634 71.4179 0
      vertex 10.5634 71.4179 13.2
      vertex 13.2996 72.2731 0
    endloop
  endfacet
  facet normal -0.298339 0.95446 0
    outer loop
      vertex 13.2996 72.2731 0
      vertex 10.5634 71.4179 13.2
      vertex 13.2996 72.2731 13.2
    endloop
  endfacet
  facet normal -0.483795 0.875181 0
    outer loop
      vertex 7.95833 69.9778 0
      vertex 7.95833 69.9778 13.2
      vertex 10.5634 71.4179 0
    endloop
  endfacet
  facet normal -0.483795 0.875181 0
    outer loop
      vertex 10.5634 71.4179 0
      vertex 7.95833 69.9778 13.2
      vertex 10.5634 71.4179 13.2
    endloop
  endfacet
  facet normal -0.639264 0.768987 0
    outer loop
      vertex 5.59831 68.0159 0
      vertex 5.59831 68.0159 13.2
      vertex 7.95833 69.9778 0
    endloop
  endfacet
  facet normal -0.639264 0.768987 0
    outer loop
      vertex 7.95833 69.9778 0
      vertex 5.59831 68.0159 13.2
      vertex 7.95833 69.9778 13.2
    endloop
  endfacet
  facet normal -0.766093 0.64273 0
    outer loop
      vertex 3.58645 65.6179 0
      vertex 3.58645 65.6179 13.2
      vertex 5.59831 68.0159 0
    endloop
  endfacet
  facet normal -0.766093 0.64273 0
    outer loop
      vertex 5.59831 68.0159 0
      vertex 3.58645 65.6179 13.2
      vertex 5.59831 68.0159 13.2
    endloop
  endfacet
  facet normal -0.866025 0.5 0
    outer loop
      vertex 2.01068 62.8886 0
      vertex 2.01068 62.8886 13.2
      vertex 3.58645 65.6179 0
    endloop
  endfacet
  facet normal -0.866025 0.5 0
    outer loop
      vertex 3.58645 65.6179 0
      vertex 2.01068 62.8886 13.2
      vertex 3.58645 65.6179 13.2
    endloop
  endfacet
  facet normal -0.939667 0.342091 0
    outer loop
      vertex 0.939878 59.9473 0
      vertex 0.939878 59.9473 13.2
      vertex 2.01068 62.8886 0
    endloop
  endfacet
  facet normal -0.939667 0.342091 0
    outer loop
      vertex 2.01068 62.8886 0
      vertex 0.939878 59.9473 13.2
      vertex 2.01068 62.8886 13.2
    endloop
  endfacet
  facet normal 0.866025 -0.5 0
    outer loop
      vertex 7.56122 62.6212 0
      vertex 7.56122 62.6212 13.2
      vertex 6.59326 60.9447 13.2
    endloop
  endfacet
  facet normal 0.866025 -0.5 0
    outer loop
      vertex 6.59326 60.9447 0
      vertex 7.56122 62.6212 0
      vertex 6.59326 60.9447 13.2
    endloop
  endfacet
  facet normal 0.997204 -0.0747304 0
    outer loop
      vertex 6.59326 60.9447 0
      vertex 6.59326 60.9447 13.2
      vertex 6.44859 59.0142 13.2
    endloop
  endfacet
  facet normal 0.997204 -0.0747304 0
    outer loop
      vertex 6.44859 59.0142 0
      vertex 6.59326 60.9447 0
      vertex 6.44859 59.0142 13.2
    endloop
  endfacet
  facet normal 0.56332 -0.826239 0
    outer loop
      vertex 9.16077 63.7118 0
      vertex 9.16077 63.7118 13.2
      vertex 7.56122 62.6212 13.2
    endloop
  endfacet
  facet normal 0.56332 -0.826239 0
    outer loop
      vertex 7.56122 62.6212 0
      vertex 9.16077 63.7118 0
      vertex 7.56122 62.6212 13.2
    endloop
  endfacet
  facet normal 0.149042 -0.988831 0
    outer loop
      vertex 11.0751 64.0003 0
      vertex 11.0751 64.0003 13.2
      vertex 9.16077 63.7118 13.2
    endloop
  endfacet
  facet normal 0.149042 -0.988831 0
    outer loop
      vertex 9.16077 63.7118 0
      vertex 11.0751 64.0003 0
      vertex 9.16077 63.7118 13.2
    endloop
  endfacet
  facet normal -0.294755 -0.955573 -0
    outer loop
      vertex 12.925 63.4297 0
      vertex 12.925 63.4297 13.2
      vertex 11.0751 64.0003 13.2
    endloop
  endfacet
  facet normal -0.294755 -0.955573 -0
    outer loop
      vertex 11.0751 64.0003 0
      vertex 12.925 63.4297 0
      vertex 11.0751 64.0003 13.2
    endloop
  endfacet
  facet normal -0.680173 -0.733052 -0
    outer loop
      vertex 14.3441 62.1129 0
      vertex 14.3441 62.1129 13.2
      vertex 12.925 63.4297 13.2
    endloop
  endfacet
  facet normal -0.680173 -0.733052 -0
    outer loop
      vertex 12.925 63.4297 0
      vertex 14.3441 62.1129 0
      vertex 12.925 63.4297 13.2
    endloop
  endfacet
  facet normal -0.930874 -0.365341 0
    outer loop
      vertex 15.0514 60.3108 13.2
      vertex 14.3441 62.1129 13.2
      vertex 15.0514 60.3108 0
    endloop
  endfacet
  facet normal -0.930874 -0.365341 0
    outer loop
      vertex 15.0514 60.3108 0
      vertex 14.3441 62.1129 13.2
      vertex 14.3441 62.1129 0
    endloop
  endfacet
  facet normal -0.997204 0.0747304 0
    outer loop
      vertex 15.0514 60.3108 13.2
      vertex 15.0514 60.3108 0
      vertex 14.9067 58.3803 13.2
    endloop
  endfacet
  facet normal -0.997204 0.0747304 0
    outer loop
      vertex 14.9067 58.3803 13.2
      vertex 15.0514 60.3108 0
      vertex 14.9067 58.3803 0
    endloop
  endfacet
  facet normal -0.866025 0.5 0
    outer loop
      vertex 14.9067 58.3803 13.2
      vertex 14.9067 58.3803 0
      vertex 13.9388 56.7037 13.2
    endloop
  endfacet
  facet normal -0.866025 0.5 0
    outer loop
      vertex 13.9388 56.7037 13.2
      vertex 14.9067 58.3803 0
      vertex 13.9388 56.7037 0
    endloop
  endfacet
  facet normal -0.56332 0.826239 0
    outer loop
      vertex 13.9388 56.7037 13.2
      vertex 13.9388 56.7037 0
      vertex 12.3392 55.6132 13.2
    endloop
  endfacet
  facet normal -0.56332 0.826239 0
    outer loop
      vertex 12.3392 55.6132 13.2
      vertex 13.9388 56.7037 0
      vertex 12.3392 55.6132 0
    endloop
  endfacet
  facet normal -0.149042 0.988831 0
    outer loop
      vertex 12.3392 55.6132 13.2
      vertex 12.3392 55.6132 0
      vertex 10.4249 55.3246 13.2
    endloop
  endfacet
  facet normal -0.149042 0.988831 0
    outer loop
      vertex 10.4249 55.3246 13.2
      vertex 12.3392 55.6132 0
      vertex 10.4249 55.3246 0
    endloop
  endfacet
  facet normal 0.294755 0.955573 -0
    outer loop
      vertex 10.4249 55.3246 13.2
      vertex 10.4249 55.3246 0
      vertex 8.575 55.8953 13.2
    endloop
  endfacet
  facet normal 0.294755 0.955573 -0
    outer loop
      vertex 8.575 55.8953 13.2
      vertex 10.4249 55.3246 0
      vertex 8.575 55.8953 0
    endloop
  endfacet
  facet normal 0.680173 0.733052 -0
    outer loop
      vertex 8.575 55.8953 13.2
      vertex 8.575 55.8953 0
      vertex 7.15586 57.212 13.2
    endloop
  endfacet
  facet normal 0.680173 0.733052 -0
    outer loop
      vertex 7.15586 57.212 13.2
      vertex 8.575 55.8953 0
      vertex 7.15586 57.212 0
    endloop
  endfacet
  facet normal 0.930874 0.365341 0
    outer loop
      vertex 6.44859 59.0142 13.2
      vertex 7.15586 57.212 13.2
      vertex 7.15586 57.212 0
    endloop
  endfacet
  facet normal 0.930874 0.365341 0
    outer loop
      vertex 6.44859 59.0142 0
      vertex 6.44859 59.0142 13.2
      vertex 7.15586 57.212 0
    endloop
  endfacet
  facet normal -0.866025 -0.5 0
    outer loop
      vertex 43.4617 35.4964 1
      vertex 35.6117 49.093 1
      vertex 43.4617 35.4964 0
    endloop
  endfacet
  facet normal -0.866025 -0.5 0
    outer loop
      vertex 43.4617 35.4964 0
      vertex 35.6117 49.093 1
      vertex 35.6117 49.093 0
    endloop
  endfacet
  facet normal 0.866019 -0.500011 0
    outer loop
      vertex 35.6117 49.093 0
      vertex 35.6117 49.093 1
      vertex 27.7614 35.4962 1
    endloop
  endfacet
  facet normal 0.866019 -0.500011 0
    outer loop
      vertex 27.7614 35.4962 0
      vertex 35.6117 49.093 0
      vertex 27.7614 35.4962 1
    endloop
  endfacet
  facet normal -1.27755e-05 1 0
    outer loop
      vertex 43.4617 35.4964 1
      vertex 43.4617 35.4964 0
      vertex 27.7614 35.4962 1
    endloop
  endfacet
  facet normal -1.27755e-05 1 0
    outer loop
      vertex 27.7614 35.4962 1
      vertex 43.4617 35.4964 0
      vertex 27.7614 35.4962 0
    endloop
  endfacet
  facet normal 0.974928 -0.222521 0
    outer loop
      vertex 36.0808 10.8874 0
      vertex 36.0808 10.8874 13.2
      vertex 35.65 9 13.2
    endloop
  endfacet
  facet normal 0.974928 -0.222521 0
    outer loop
      vertex 35.65 9 0
      vertex 36.0808 10.8874 0
      vertex 35.65 9 13.2
    endloop
  endfacet
  facet normal 0.974928 0.222521 0
    outer loop
      vertex 35.65 9 13.2
      vertex 36.0808 7.11261 13.2
      vertex 36.0808 7.11261 0
    endloop
  endfacet
  facet normal 0.974928 0.222521 0
    outer loop
      vertex 35.65 9 0
      vertex 35.65 9 13.2
      vertex 36.0808 7.11261 0
    endloop
  endfacet
  facet normal 0.781832 -0.62349 0
    outer loop
      vertex 37.2878 12.401 0
      vertex 37.2878 12.401 13.2
      vertex 36.0808 10.8874 13.2
    endloop
  endfacet
  facet normal 0.781832 -0.62349 0
    outer loop
      vertex 36.0808 10.8874 0
      vertex 37.2878 12.401 0
      vertex 36.0808 10.8874 13.2
    endloop
  endfacet
  facet normal 0.433883 -0.900969 0
    outer loop
      vertex 39.032 13.2409 0
      vertex 39.032 13.2409 13.2
      vertex 37.2878 12.401 13.2
    endloop
  endfacet
  facet normal 0.433883 -0.900969 0
    outer loop
      vertex 37.2878 12.401 0
      vertex 39.032 13.2409 0
      vertex 37.2878 12.401 13.2
    endloop
  endfacet
  facet normal 0 -1 0
    outer loop
      vertex 40.968 13.2409 0
      vertex 40.968 13.2409 13.2
      vertex 39.032 13.2409 13.2
    endloop
  endfacet
  facet normal -0 -1 -0
    outer loop
      vertex 39.032 13.2409 0
      vertex 40.968 13.2409 0
      vertex 39.032 13.2409 13.2
    endloop
  endfacet
  facet normal -0.433883 -0.900969 -0
    outer loop
      vertex 42.7122 12.401 0
      vertex 42.7122 12.401 13.2
      vertex 40.968 13.2409 13.2
    endloop
  endfacet
  facet normal -0.433883 -0.900969 -0
    outer loop
      vertex 40.968 13.2409 0
      vertex 42.7122 12.401 0
      vertex 40.968 13.2409 13.2
    endloop
  endfacet
  facet normal -0.781832 -0.62349 0
    outer loop
      vertex 43.9192 10.8874 13.2
      vertex 42.7122 12.401 13.2
      vertex 43.9192 10.8874 0
    endloop
  endfacet
  facet normal -0.781832 -0.62349 0
    outer loop
      vertex 43.9192 10.8874 0
      vertex 42.7122 12.401 13.2
      vertex 42.7122 12.401 0
    endloop
  endfacet
  facet normal -0.974928 -0.222521 0
    outer loop
      vertex 44.35 9 13.2
      vertex 43.9192 10.8874 13.2
      vertex 44.35 9 0
    endloop
  endfacet
  facet normal -0.974928 -0.222521 0
    outer loop
      vertex 44.35 9 0
      vertex 43.9192 10.8874 13.2
      vertex 43.9192 10.8874 0
    endloop
  endfacet
  facet normal -0.974928 0.222521 0
    outer loop
      vertex 44.35 9 13.2
      vertex 44.35 9 0
      vertex 43.9192 7.11261 13.2
    endloop
  endfacet
  facet normal -0.974928 0.222521 0
    outer loop
      vertex 43.9192 7.11261 13.2
      vertex 44.35 9 0
      vertex 43.9192 7.11261 0
    endloop
  endfacet
  facet normal -0.781832 0.62349 0
    outer loop
      vertex 43.9192 7.11261 13.2
      vertex 43.9192 7.11261 0
      vertex 42.7122 5.59903 13.2
    endloop
  endfacet
  facet normal -0.781832 0.62349 0
    outer loop
      vertex 42.7122 5.59903 13.2
      vertex 43.9192 7.11261 0
      vertex 42.7122 5.59903 0
    endloop
  endfacet
  facet normal -0.433883 0.900969 0
    outer loop
      vertex 42.7122 5.59903 13.2
      vertex 42.7122 5.59903 0
      vertex 40.968 4.75906 13.2
    endloop
  endfacet
  facet normal -0.433883 0.900969 0
    outer loop
      vertex 40.968 4.75906 13.2
      vertex 42.7122 5.59903 0
      vertex 40.968 4.75906 0
    endloop
  endfacet
  facet normal 0 1 0
    outer loop
      vertex 40.968 4.75906 13.2
      vertex 40.968 4.75906 0
      vertex 39.032 4.75906 13.2
    endloop
  endfacet
  facet normal 0 1 -0
    outer loop
      vertex 39.032 4.75906 13.2
      vertex 40.968 4.75906 0
      vertex 39.032 4.75906 0
    endloop
  endfacet
  facet normal 0.433883 0.900969 -0
    outer loop
      vertex 39.032 4.75906 13.2
      vertex 39.032 4.75906 0
      vertex 37.2878 5.59903 13.2
    endloop
  endfacet
  facet normal 0.433883 0.900969 -0
    outer loop
      vertex 37.2878 5.59903 13.2
      vertex 39.032 4.75906 0
      vertex 37.2878 5.59903 0
    endloop
  endfacet
  facet normal 0.781832 0.62349 0
    outer loop
      vertex 36.0808 7.11261 13.2
      vertex 37.2878 5.59903 13.2
      vertex 37.2878 5.59903 0
    endloop
  endfacet
  facet normal 0.781832 0.62349 0
    outer loop
      vertex 36.0808 7.11261 0
      vertex 36.0808 7.11261 13.2
      vertex 37.2878 5.59903 0
    endloop
  endfacet
  facet normal 0 0 1
    outer loop
      vertex 0.939878 59.9473 13.2
      vertex 0.420833 56.9225 13.2
      vertex 0.476232 53.9464 13.2
    endloop
  endfacet
  facet normal 0 0 1
    outer loop
      vertex 2.27568 48.6529 13.2
      vertex 0.939878 59.9473 13.2
      vertex 1.10365 51.1492 13.2
    endloop
  endfacet
  facet normal 0 0 1
    outer loop
      vertex 1.10365 51.1492 13.2
      vertex 0.939878 59.9473 13.2
      vertex 0.476232 53.9464 13.2
    endloop
  endfacet
  facet normal 0 0 1
    outer loop
      vertex 3.94108 46.5669 13.2
      vertex 0.939878 59.9473 13.2
      vertex 2.27568 48.6529 13.2
    endloop
  endfacet
  facet normal 0 0 1
    outer loop
      vertex 6.02708 44.9822 13.2
      vertex 0.939878 59.9473 13.2
      vertex 3.94108 46.5669 13.2
    endloop
  endfacet
  facet normal 0 0 1
    outer loop
      vertex 19.5732 37.1613 13.2
      vertex 0.939878 59.9473 13.2
      vertex 6.02708 44.9822 13.2
    endloop
  endfacet
  facet normal 0 0 1
    outer loop
      vertex 20.884 35.749 13.2
      vertex 0.939878 59.9473 13.2
      vertex 19.5732 37.1613 13.2
    endloop
  endfacet
  facet normal 0 0 1
    outer loop
      vertex 40.968 13.2409 13.2
      vertex 0.939878 59.9473 13.2
      vertex 20.884 35.749 13.2
    endloop
  endfacet
  facet normal 0 0 1
    outer loop
      vertex 22.088 34.159 13.2
      vertex 39.032 13.2409 13.2
      vertex 20.884 35.749 13.2
    endloop
  endfacet
  facet normal 0 0 1
    outer loop
      vertex 36.0808 10.8874 13.2
      vertex 37.2878 12.401 13.2
      vertex 23.127 32.458 13.2
    endloop
  endfacet
  facet normal 0 0 1
    outer loop
      vertex 35.3416 0.361794 13.2
      vertex 23.993 30.662 13.2
      vertex 24.674 28.788 13.2
    endloop
  endfacet
  facet normal 0 0 1
    outer loop
      vertex 32.4625 1.42468 13.2
      vertex 24.674 28.788 13.2
      vertex 24.925 27.8015 13.2
    endloop
  endfacet
  facet normal 0 0 1
    outer loop
      vertex 25.2544 9.6511 13.2
      vertex 24.925 27.8015 13.2
      vertex 24.925 12.25 13.2
    endloop
  endfacet
  facet normal 0 0 1
    outer loop
      vertex 26.2283 7.16579 13.2
      vertex 24.925 27.8015 13.2
      vertex 25.2544 9.6511 13.2
    endloop
  endfacet
  facet normal 0 0 1
    outer loop
      vertex 27.8041 4.90268 13.2
      vertex 24.925 27.8015 13.2
      vertex 26.2283 7.16579 13.2
    endloop
  endfacet
  facet normal 0 0 1
    outer loop
      vertex 29.9129 2.96069 13.2
      vertex 24.925 27.8015 13.2
      vertex 27.8041 4.90268 13.2
    endloop
  endfacet
  facet normal 0 0 1
    outer loop
      vertex 32.4625 1.42468 13.2
      vertex 24.925 27.8015 13.2
      vertex 29.9129 2.96069 13.2
    endloop
  endfacet
  facet normal 0 0 1
    outer loop
      vertex 35.3416 0.361794 13.2
      vertex 24.674 28.788 13.2
      vertex 32.4625 1.42468 13.2
    endloop
  endfacet
  facet normal 0 0 1
    outer loop
      vertex 38.4242 -0.181524 13.2
      vertex 23.993 30.662 13.2
      vertex 35.3416 0.361794 13.2
    endloop
  endfacet
  facet normal -0 -0 1
    outer loop
      vertex 36.0808 7.11261 13.2
      vertex 23.993 30.662 13.2
      vertex 38.4242 -0.181524 13.2
    endloop
  endfacet
  facet normal 0 0 1
    outer loop
      vertex 23.127 32.458 13.2
      vertex 37.2878 12.401 13.2
      vertex 22.088 34.159 13.2
    endloop
  endfacet
  facet normal -0 0 1
    outer loop
      vertex 53.7717 7.16579 13.2
      vertex 0.939878 59.9473 13.2
      vertex 52.1959 4.90268 13.2
    endloop
  endfacet
  facet normal -0 0 1
    outer loop
      vertex 54.7456 9.6511 13.2
      vertex 0.939878 59.9473 13.2
      vertex 53.7717 7.16579 13.2
    endloop
  endfacet
  facet normal -0 -0 1
    outer loop
      vertex 27.7614 35.4962 13.2
      vertex 0.939878 59.9473 13.2
      vertex 54.7456 9.6511 13.2
    endloop
  endfacet
  facet normal 0 0 1
    outer loop
      vertex 35.6117 49.093 13.2
      vertex 47.984 41.369 13.2
      vertex 46.39 43.446 13.2
    endloop
  endfacet
  facet normal 0 0 1
    outer loop
      vertex 8.575 55.8953 13.2
      vertex 7.15586 57.212 13.2
      vertex 0.939878 59.9473 13.2
    endloop
  endfacet
  facet normal 0 0 1
    outer loop
      vertex 35.6117 49.093 13.2
      vertex 49.752 39.44 13.2
      vertex 47.984 41.369 13.2
    endloop
  endfacet
  facet normal 0 0 1
    outer loop
      vertex 35.6117 49.093 13.2
      vertex 43.4617 35.4964 13.2
      vertex 55.075 29.25 13.2
    endloop
  endfacet
  facet normal 0 0 1
    outer loop
      vertex 6.44859 59.0142 13.2
      vertex 6.59326 60.9447 13.2
      vertex 0.939878 59.9473 13.2
    endloop
  endfacet
  facet normal 0 0 1
    outer loop
      vertex 14.9067 58.3803 13.2
      vertex 41.572 54.614 13.2
      vertex 41.563 54.696 13.2
    endloop
  endfacet
  facet normal 0 0 1
    outer loop
      vertex 15.0514 60.3108 13.2
      vertex 40.788 57.082 13.2
      vertex 39.533 59.254 13.2
    endloop
  endfacet
  facet normal 0 -0 1
    outer loop
      vertex 15.0514 60.3108 13.2
      vertex 14.9067 58.3803 13.2
      vertex 40.788 57.082 13.2
    endloop
  endfacet
  facet normal 0 0 1
    outer loop
      vertex 14.9067 58.3803 13.2
      vertex 42.774 50.392 13.2
      vertex 41.987 52.888 13.2
    endloop
  endfacet
  facet normal 0 -0 1
    outer loop
      vertex 41.603 54.621 13.2
      vertex 41.572 54.614 13.2
      vertex 41.987 52.888 13.2
    endloop
  endfacet
  facet normal 0 0 1
    outer loop
      vertex 35.6117 49.093 13.2
      vertex 54.038 34.131 13.2
      vertex 52.783 36.303 13.2
    endloop
  endfacet
  facet normal 0 0 1
    outer loop
      vertex 35.6117 49.093 13.2
      vertex 51.105 38.168 13.2
      vertex 51.038 38.216 13.2
    endloop
  endfacet
  facet normal 0 0 1
    outer loop
      vertex 9.16077 63.7118 13.2
      vertex 11.0751 64.0003 13.2
      vertex 21.1021 71.0928 13.2
    endloop
  endfacet
  facet normal 0 -0 1
    outer loop
      vertex 18.6867 72.107 13.2
      vertex 0.939878 59.9473 13.2
      vertex 21.1021 71.0928 13.2
    endloop
  endfacet
  facet normal 0 -0 1
    outer loop
      vertex 16.0474 72.5062 13.2
      vertex 0.939878 59.9473 13.2
      vertex 18.6867 72.107 13.2
    endloop
  endfacet
  facet normal 0 -0 1
    outer loop
      vertex 13.2996 72.2731 13.2
      vertex 0.939878 59.9473 13.2
      vertex 16.0474 72.5062 13.2
    endloop
  endfacet
  facet normal 0 -0 1
    outer loop
      vertex 10.5634 71.4179 13.2
      vertex 0.939878 59.9473 13.2
      vertex 13.2996 72.2731 13.2
    endloop
  endfacet
  facet normal 0 -0 1
    outer loop
      vertex 7.95833 69.9778 13.2
      vertex 0.939878 59.9473 13.2
      vertex 10.5634 71.4179 13.2
    endloop
  endfacet
  facet normal 0 -0 1
    outer loop
      vertex 5.59831 68.0159 13.2
      vertex 0.939878 59.9473 13.2
      vertex 7.95833 69.9778 13.2
    endloop
  endfacet
  facet normal 0 -0 1
    outer loop
      vertex 3.58645 65.6179 13.2
      vertex 0.939878 59.9473 13.2
      vertex 5.59831 68.0159 13.2
    endloop
  endfacet
  facet normal 0 -0 1
    outer loop
      vertex 2.01068 62.8886 13.2
      vertex 0.939878 59.9473 13.2
      vertex 3.58645 65.6179 13.2
    endloop
  endfacet
  facet normal 0 0 1
    outer loop
      vertex 35.6117 49.093 13.2
      vertex 55.075 29.25 13.2
      vertex 54.813 31.745 13.2
    endloop
  endfacet
  facet normal 0 -0 1
    outer loop
      vertex 14.9067 58.3803 13.2
      vertex 13.9388 56.7037 13.2
      vertex 42.774 50.392 13.2
    endloop
  endfacet
  facet normal 0 0 1
    outer loop
      vertex 7.56122 62.6212 13.2
      vertex 0.939878 59.9473 13.2
      vertex 6.59326 60.9447 13.2
    endloop
  endfacet
  facet normal 0 0 1
    outer loop
      vertex 14.3441 62.1129 13.2
      vertex 35.825 62.593 13.2
      vertex 35.8215 62.5946 13.2
    endloop
  endfacet
  facet normal 0 0 1
    outer loop
      vertex 9.16077 63.7118 13.2
      vertex 0.939878 59.9473 13.2
      vertex 7.56122 62.6212 13.2
    endloop
  endfacet
  facet normal 0 0 1
    outer loop
      vertex 14.3441 62.1129 13.2
      vertex 37.855 61.119 13.2
      vertex 35.825 62.593 13.2
    endloop
  endfacet
  facet normal 0 0 1
    outer loop
      vertex 21.1021 71.0928 13.2
      vertex 0.939878 59.9473 13.2
      vertex 9.16077 63.7118 13.2
    endloop
  endfacet
  facet normal 0 -0 1
    outer loop
      vertex 21.1021 71.0928 13.2
      vertex 11.0751 64.0003 13.2
      vertex 35.8215 62.5946 13.2
    endloop
  endfacet
  facet normal 0 0 1
    outer loop
      vertex 11.0751 64.0003 13.2
      vertex 12.925 63.4297 13.2
      vertex 35.8215 62.5946 13.2
    endloop
  endfacet
  facet normal 0 0 1
    outer loop
      vertex 12.925 63.4297 13.2
      vertex 14.3441 62.1129 13.2
      vertex 35.8215 62.5946 13.2
    endloop
  endfacet
  facet normal 0 -0 1
    outer loop
      vertex 37.855 61.119 13.2
      vertex 15.0514 60.3108 13.2
      vertex 39.533 59.254 13.2
    endloop
  endfacet
  facet normal 0 0 1
    outer loop
      vertex 14.3441 62.1129 13.2
      vertex 15.0514 60.3108 13.2
      vertex 37.855 61.119 13.2
    endloop
  endfacet
  facet normal -0 -0 1
    outer loop
      vertex 40.788 57.082 13.2
      vertex 14.9067 58.3803 13.2
      vertex 41.563 54.696 13.2
    endloop
  endfacet
  facet normal 0 0 1
    outer loop
      vertex 35.6117 49.093 13.2
      vertex 52.783 36.303 13.2
      vertex 51.105 38.168 13.2
    endloop
  endfacet
  facet normal -0 -0 1
    outer loop
      vertex 42.774 50.392 13.2
      vertex 13.9388 56.7037 13.2
      vertex 43.776 47.974 13.2
    endloop
  endfacet
  facet normal 0 0 1
    outer loop
      vertex 35.65 9 13.2
      vertex 36.0808 10.8874 13.2
      vertex 23.127 32.458 13.2
    endloop
  endfacet
  facet normal 0 0 1
    outer loop
      vertex 35.65 9 13.2
      vertex 23.127 32.458 13.2
      vertex 23.993 30.662 13.2
    endloop
  endfacet
  facet normal 0 -0 1
    outer loop
      vertex 43.4617 35.4964 13.2
      vertex 27.7614 35.4962 13.2
      vertex 55.075 12.25 13.2
    endloop
  endfacet
  facet normal 0 0 1
    outer loop
      vertex 35.6117 49.093 13.2
      vertex 51.06 38.241 13.2
      vertex 49.752 39.44 13.2
    endloop
  endfacet
  facet normal 0 0 1
    outer loop
      vertex 27.7614 35.4962 13.2
      vertex 8.575 55.8953 13.2
      vertex 0.939878 59.9473 13.2
    endloop
  endfacet
  facet normal -0 0 1
    outer loop
      vertex 55.075 12.25 13.2
      vertex 27.7614 35.4962 13.2
      vertex 54.7456 9.6511 13.2
    endloop
  endfacet
  facet normal 0 0 1
    outer loop
      vertex 35.6117 49.093 13.2
      vertex 46.39 43.446 13.2
      vertex 44.984 45.653 13.2
    endloop
  endfacet
  facet normal -0 -0 1
    outer loop
      vertex 43.776 47.974 13.2
      vertex 35.6117 49.093 13.2
      vertex 44.984 45.653 13.2
    endloop
  endfacet
  facet normal 0 0 1
    outer loop
      vertex 14.9067 58.3803 13.2
      vertex 41.987 52.888 13.2
      vertex 41.572 54.614 13.2
    endloop
  endfacet
  facet normal -0 0 1
    outer loop
      vertex 55.075 29.25 13.2
      vertex 43.4617 35.4964 13.2
      vertex 55.075 12.25 13.2
    endloop
  endfacet
  facet normal -0 0 1
    outer loop
      vertex 41.5758 -0.181524 13.2
      vertex 36.0808 7.11261 13.2
      vertex 38.4242 -0.181524 13.2
    endloop
  endfacet
  facet normal -0 -0 1
    outer loop
      vertex 35.65 9 13.2
      vertex 23.993 30.662 13.2
      vertex 36.0808 7.11261 13.2
    endloop
  endfacet
  facet normal -0 -0 1
    outer loop
      vertex 39.032 4.75906 13.2
      vertex 37.2878 5.59903 13.2
      vertex 41.5758 -0.181524 13.2
    endloop
  endfacet
  facet normal 0 0 1
    outer loop
      vertex 37.2878 12.401 13.2
      vertex 39.032 13.2409 13.2
      vertex 22.088 34.159 13.2
    endloop
  endfacet
  facet normal 0 0 1
    outer loop
      vertex 39.032 13.2409 13.2
      vertex 40.968 13.2409 13.2
      vertex 20.884 35.749 13.2
    endloop
  endfacet
  facet normal 0 -0 1
    outer loop
      vertex 42.7122 5.59903 13.2
      vertex 40.968 4.75906 13.2
      vertex 44.6584 0.361794 13.2
    endloop
  endfacet
  facet normal 0 0 1
    outer loop
      vertex 43.9192 10.8874 13.2
      vertex 44.35 9 13.2
      vertex 50.0871 2.96069 13.2
    endloop
  endfacet
  facet normal 0 -0 1
    outer loop
      vertex 44.35 9 13.2
      vertex 43.9192 7.11261 13.2
      vertex 50.0871 2.96069 13.2
    endloop
  endfacet
  facet normal 0 -0 1
    outer loop
      vertex 43.9192 7.11261 13.2
      vertex 42.7122 5.59903 13.2
      vertex 47.5375 1.42468 13.2
    endloop
  endfacet
  facet normal 0 0 1
    outer loop
      vertex 52.1959 4.90268 13.2
      vertex 0.939878 59.9473 13.2
      vertex 42.7122 12.401 13.2
    endloop
  endfacet
  facet normal -0 0 1
    outer loop
      vertex 52.1959 4.90268 13.2
      vertex 43.9192 10.8874 13.2
      vertex 50.0871 2.96069 13.2
    endloop
  endfacet
  facet normal 0 0 1
    outer loop
      vertex 52.1959 4.90268 13.2
      vertex 42.7122 12.401 13.2
      vertex 43.9192 10.8874 13.2
    endloop
  endfacet
  facet normal 0 0 1
    outer loop
      vertex 40.968 13.2409 13.2
      vertex 42.7122 12.401 13.2
      vertex 0.939878 59.9473 13.2
    endloop
  endfacet
  facet normal -0 0 1
    outer loop
      vertex 50.0871 2.96069 13.2
      vertex 43.9192 7.11261 13.2
      vertex 47.5375 1.42468 13.2
    endloop
  endfacet
  facet normal -0 0 1
    outer loop
      vertex 47.5375 1.42468 13.2
      vertex 42.7122 5.59903 13.2
      vertex 44.6584 0.361794 13.2
    endloop
  endfacet
  facet normal -0 0 1
    outer loop
      vertex 44.6584 0.361794 13.2
      vertex 40.968 4.75906 13.2
      vertex 41.5758 -0.181524 13.2
    endloop
  endfacet
  facet normal 0 -0 1
    outer loop
      vertex 40.968 4.75906 13.2
      vertex 39.032 4.75906 13.2
      vertex 41.5758 -0.181524 13.2
    endloop
  endfacet
  facet normal 0 0 1
    outer loop
      vertex 41.5758 -0.181524 13.2
      vertex 37.2878 5.59903 13.2
      vertex 36.0808 7.11261 13.2
    endloop
  endfacet
  facet normal 0 0 1
    outer loop
      vertex 35.6117 49.093 13.2
      vertex 54.813 31.745 13.2
      vertex 54.038 34.131 13.2
    endloop
  endfacet
  facet normal 0 0 1
    outer loop
      vertex 13.9388 56.7037 13.2
      vertex 35.6117 49.093 13.2
      vertex 43.776 47.974 13.2
    endloop
  endfacet
  facet normal 0 0 1
    outer loop
      vertex 35.6117 49.093 13.2
      vertex 51.038 38.216 13.2
      vertex 51.06 38.241 13.2
    endloop
  endfacet
  facet normal 0 0 1
    outer loop
      vertex 7.15586 57.212 13.2
      vertex 6.44859 59.0142 13.2
      vertex 0.939878 59.9473 13.2
    endloop
  endfacet
  facet normal 0 0 1
    outer loop
      vertex 27.7614 35.4962 13.2
      vertex 10.4249 55.3246 13.2
      vertex 8.575 55.8953 13.2
    endloop
  endfacet
  facet normal 0 0 1
    outer loop
      vertex 27.7614 35.4962 13.2
      vertex 12.3392 55.6132 13.2
      vertex 10.4249 55.3246 13.2
    endloop
  endfacet
  facet normal 0 0 1
    outer loop
      vertex 27.7614 35.4962 13.2
      vertex 13.9388 56.7037 13.2
      vertex 12.3392 55.6132 13.2
    endloop
  endfacet
  facet normal 0 0 1
    outer loop
      vertex 27.7614 35.4962 13.2
      vertex 35.6117 49.093 13.2
      vertex 13.9388 56.7037 13.2
    endloop
  endfacet
  facet normal 0.844283 -0.487447 0.22267
    outer loop
      vertex 9.99434 42.6917 4.713
      vertex 25.0693 68.8023 4.713
      vertex 24.6961 69.0178 6.6
    endloop
  endfacet
  facet normal 0.844283 -0.487447 0.22267
    outer loop
      vertex 9.62109 42.9072 6.6
      vertex 9.99434 42.6917 4.713
      vertex 24.6961 69.0178 6.6
    endloop
  endfacet
  facet normal 0.677168 -0.390963 0.623372
    outer loop
      vertex 11.0396 42.0882 3.199
      vertex 26.1146 68.1988 3.199
      vertex 25.0693 68.8023 4.713
    endloop
  endfacet
  facet normal 0.677168 -0.390963 0.623372
    outer loop
      vertex 9.99434 42.6917 4.713
      vertex 11.0396 42.0882 3.199
      vertex 25.0693 68.8023 4.713
    endloop
  endfacet
  facet normal 0.375803 -0.21697 0.900942
    outer loop
      vertex 12.55 41.2162 2.359
      vertex 27.625 67.3268 2.359
      vertex 26.1146 68.1988 3.199
    endloop
  endfacet
  facet normal 0.375803 -0.21697 0.900942
    outer loop
      vertex 11.0396 42.0882 3.199
      vertex 12.55 41.2162 2.359
      vertex 26.1146 68.1988 3.199
    endloop
  endfacet
  facet normal 8.8376e-17 1.53072e-16 1
    outer loop
      vertex 14.2266 40.2482 2.359
      vertex 29.3016 66.3588 2.359
      vertex 27.625 67.3268 2.359
    endloop
  endfacet
  facet normal 8.8376e-17 1.53072e-16 1
    outer loop
      vertex 12.55 41.2162 2.359
      vertex 14.2266 40.2482 2.359
      vertex 27.625 67.3268 2.359
    endloop
  endfacet
  facet normal -0.375803 0.21697 0.900942
    outer loop
      vertex 15.737 39.3762 3.199
      vertex 30.812 65.4868 3.199
      vertex 29.3016 66.3588 2.359
    endloop
  endfacet
  facet normal -0.375803 0.21697 0.900942
    outer loop
      vertex 14.2266 40.2482 2.359
      vertex 15.737 39.3762 3.199
      vertex 29.3016 66.3588 2.359
    endloop
  endfacet
  facet normal -0.677168 0.390963 0.623372
    outer loop
      vertex 31.8573 64.8833 4.713
      vertex 30.812 65.4868 3.199
      vertex 16.7823 38.7727 4.713
    endloop
  endfacet
  facet normal -0.677168 0.390963 0.623372
    outer loop
      vertex 16.7823 38.7727 4.713
      vertex 30.812 65.4868 3.199
      vertex 15.737 39.3762 3.199
    endloop
  endfacet
  facet normal -0.844283 0.487447 0.22267
    outer loop
      vertex 32.2305 64.6678 6.6
      vertex 31.8573 64.8833 4.713
      vertex 17.1555 38.5572 6.6
    endloop
  endfacet
  facet normal -0.844283 0.487447 0.22267
    outer loop
      vertex 17.1555 38.5572 6.6
      vertex 31.8573 64.8833 4.713
      vertex 16.7823 38.7727 4.713
    endloop
  endfacet
  facet normal -0.844283 0.487447 -0.22267
    outer loop
      vertex 32.2305 64.6678 6.6
      vertex 17.1555 38.5572 6.6
      vertex 31.8573 64.8833 8.487
    endloop
  endfacet
  facet normal -0.844283 0.487447 -0.22267
    outer loop
      vertex 31.8573 64.8833 8.487
      vertex 17.1555 38.5572 6.6
      vertex 16.7823 38.7727 8.487
    endloop
  endfacet
  facet normal -0.677023 0.390879 -0.623582
    outer loop
      vertex 31.8573 64.8833 8.487
      vertex 16.7823 38.7727 8.487
      vertex 31.6797 64.9858 8.744
    endloop
  endfacet
  facet normal -0.677023 0.390879 -0.623582
    outer loop
      vertex 31.6797 64.9858 8.744
      vertex 16.7823 38.7727 8.487
      vertex 16.6047 38.8752 8.744
    endloop
  endfacet
  facet normal -0.437242 0.252442 0.863188
    outer loop
      vertex 16.6506 38.8487 8.775
      vertex 31.7256 64.9593 8.775
      vertex 31.6797 64.9858 8.744
    endloop
  endfacet
  facet normal -0.437242 0.252442 0.863188
    outer loop
      vertex 16.6047 38.8752 8.744
      vertex 16.6506 38.8487 8.775
      vertex 31.6797 64.9858 8.744
    endloop
  endfacet
  facet normal -0.698827 0.403468 -0.59064
    outer loop
      vertex 31.7256 64.9593 8.775
      vertex 16.6506 38.8487 8.775
      vertex 30.3469 65.7553 10.95
    endloop
  endfacet
  facet normal -0.698827 0.403468 -0.59064
    outer loop
      vertex 30.3469 65.7553 10.95
      vertex 16.6506 38.8487 8.775
      vertex 15.2719 39.6447 10.95
    endloop
  endfacet
  facet normal -8.8376e-17 -1.53072e-16 -1
    outer loop
      vertex 30.3469 65.7553 10.95
      vertex 15.2719 39.6447 10.95
      vertex 26.5797 67.9303 10.95
    endloop
  endfacet
  facet normal -8.8376e-17 -1.53072e-16 -1
    outer loop
      vertex 26.5797 67.9303 10.95
      vertex 15.2719 39.6447 10.95
      vertex 11.5047 41.8197 10.95
    endloop
  endfacet
  facet normal 0.698827 -0.403468 -0.59064
    outer loop
      vertex 25.201 68.7263 8.775
      vertex 26.5797 67.9303 10.95
      vertex 11.5047 41.8197 10.95
    endloop
  endfacet
  facet normal 0.698827 -0.403468 -0.59064
    outer loop
      vertex 10.126 42.6157 8.775
      vertex 25.201 68.7263 8.775
      vertex 11.5047 41.8197 10.95
    endloop
  endfacet
  facet normal 0.437242 -0.252442 0.863188
    outer loop
      vertex 10.1719 42.5892 8.744
      vertex 25.2469 68.6998 8.744
      vertex 25.201 68.7263 8.775
    endloop
  endfacet
  facet normal 0.437242 -0.252442 0.863188
    outer loop
      vertex 10.126 42.6157 8.775
      vertex 10.1719 42.5892 8.744
      vertex 25.201 68.7263 8.775
    endloop
  endfacet
  facet normal 0.677023 -0.390879 -0.623582
    outer loop
      vertex 25.0693 68.8023 8.487
      vertex 25.2469 68.6998 8.744
      vertex 10.1719 42.5892 8.744
    endloop
  endfacet
  facet normal 0.677023 -0.390879 -0.623582
    outer loop
      vertex 9.99434 42.6917 8.487
      vertex 25.0693 68.8023 8.487
      vertex 10.1719 42.5892 8.744
    endloop
  endfacet
  facet normal 0.844283 -0.487447 -0.22267
    outer loop
      vertex 24.6961 69.0178 6.6
      vertex 25.0693 68.8023 8.487
      vertex 9.99434 42.6917 8.487
    endloop
  endfacet
  facet normal 0.844283 -0.487447 -0.22267
    outer loop
      vertex 9.62109 42.9072 6.6
      vertex 24.6961 69.0178 6.6
      vertex 9.99434 42.6917 8.487
    endloop
  endfacet
  facet normal 1.54234e-16 0.974894 0.22267
    outer loop
      vertex 55.075 16.831 4.713
      vertex 24.925 16.831 4.713
      vertex 55.075 16.4 6.6
    endloop
  endfacet
  facet normal 1.54234e-16 0.974894 0.22267
    outer loop
      vertex 55.075 16.4 6.6
      vertex 24.925 16.831 4.713
      vertex 24.925 16.4 6.6
    endloop
  endfacet
  facet normal 7.55188e-17 0.974894 -0.22267
    outer loop
      vertex 55.075 16.831 8.487
      vertex 55.075 16.4 6.6
      vertex 24.925 16.831 8.487
    endloop
  endfacet
  facet normal 7.51125e-17 0.974894 -0.22267
    outer loop
      vertex 24.925 16.831 8.487
      vertex 55.075 16.4 6.6
      vertex 24.925 16.4 6.6
    endloop
  endfacet
  facet normal -1.10219e-16 0.781758 -0.623582
    outer loop
      vertex 55.075 17.036 8.744
      vertex 55.075 16.831 8.487
      vertex 24.925 17.036 8.744
    endloop
  endfacet
  facet normal -1.83697e-17 0.781758 -0.623582
    outer loop
      vertex 24.925 17.036 8.744
      vertex 55.075 16.831 8.487
      vertex 24.925 16.831 8.487
    endloop
  endfacet
  facet normal 1.52575e-16 0.504883 0.863188
    outer loop
      vertex 55.075 16.983 8.775
      vertex 55.075 17.036 8.744
      vertex 24.925 17.036 8.744
    endloop
  endfacet
  facet normal 1.5257e-16 0.504883 0.863188
    outer loop
      vertex 24.925 16.983 8.775
      vertex 55.075 16.983 8.775
      vertex 24.925 17.036 8.744
    endloop
  endfacet
  facet normal -9.31177e-18 0.806935 -0.59064
    outer loop
      vertex 55.075 18.575 10.95
      vertex 55.075 16.983 8.775
      vertex 24.925 18.575 10.95
    endloop
  endfacet
  facet normal -1.05376e-16 0.806935 -0.59064
    outer loop
      vertex 24.925 18.575 10.95
      vertex 55.075 16.983 8.775
      vertex 24.925 16.983 8.775
    endloop
  endfacet
  facet normal -1.76752e-16 0 -1
    outer loop
      vertex 55.075 22.925 10.95
      vertex 55.075 18.575 10.95
      vertex 24.925 22.925 10.95
    endloop
  endfacet
  facet normal -1.76752e-16 0 -1
    outer loop
      vertex 24.925 22.925 10.95
      vertex 55.075 18.575 10.95
      vertex 24.925 18.575 10.95
    endloop
  endfacet
  facet normal -1.99482e-16 -0.806935 -0.59064
    outer loop
      vertex 24.925 24.517 8.775
      vertex 55.075 24.517 8.775
      vertex 55.075 22.925 10.95
    endloop
  endfacet
  facet normal -1.04397e-16 -0.806935 -0.59064
    outer loop
      vertex 24.925 22.925 10.95
      vertex 24.925 24.517 8.775
      vertex 55.075 22.925 10.95
    endloop
  endfacet
  facet normal 9.30659e-17 -0.504883 0.863188
    outer loop
      vertex 55.075 24.464 8.744
      vertex 55.075 24.517 8.775
      vertex 24.925 24.517 8.775
    endloop
  endfacet
  facet normal 9.30773e-17 -0.504883 0.863188
    outer loop
      vertex 24.925 24.464 8.744
      vertex 55.075 24.464 8.744
      vertex 24.925 24.517 8.775
    endloop
  endfacet
  facet normal -1.10219e-16 -0.781758 -0.623582
    outer loop
      vertex 24.925 24.669 8.487
      vertex 55.075 24.669 8.487
      vertex 55.075 24.464 8.744
    endloop
  endfacet
  facet normal -2.02337e-16 -0.781758 -0.623582
    outer loop
      vertex 24.925 24.464 8.744
      vertex 24.925 24.669 8.487
      vertex 55.075 24.464 8.744
    endloop
  endfacet
  facet normal -1.54234e-16 -0.974894 -0.22267
    outer loop
      vertex 24.925 25.1 6.6
      vertex 55.075 25.1 6.6
      vertex 55.075 24.669 8.487
    endloop
  endfacet
  facet normal -3.93574e-17 -0.974894 -0.22267
    outer loop
      vertex 24.925 24.669 8.487
      vertex 24.925 25.1 6.6
      vertex 55.075 24.669 8.487
    endloop
  endfacet
  facet normal -7.57729e-17 -0.974894 0.22267
    outer loop
      vertex 55.075 24.669 4.713
      vertex 55.075 25.1 6.6
      vertex 24.925 25.1 6.6
    endloop
  endfacet
  facet normal 3.93574e-17 -0.974894 0.22267
    outer loop
      vertex 24.925 24.669 4.713
      vertex 55.075 24.669 4.713
      vertex 24.925 25.1 6.6
    endloop
  endfacet
  facet normal 1.1202e-16 -0.781926 0.623372
    outer loop
      vertex 55.075 23.462 3.199
      vertex 55.075 24.669 4.713
      vertex 24.925 24.669 4.713
    endloop
  endfacet
  facet normal 1.10182e-16 -0.781926 0.623372
    outer loop
      vertex 24.925 23.462 3.199
      vertex 55.075 23.462 3.199
      vertex 24.925 24.669 4.713
    endloop
  endfacet
  facet normal 1.60386e-16 -0.43394 0.900942
    outer loop
      vertex 55.075 21.718 2.359
      vertex 55.075 23.462 3.199
      vertex 24.925 23.462 3.199
    endloop
  endfacet
  facet normal 1.59243e-16 -0.43394 0.900942
    outer loop
      vertex 24.925 21.718 2.359
      vertex 55.075 21.718 2.359
      vertex 24.925 23.462 3.199
    endloop
  endfacet
  facet normal 1.76752e-16 0 1
    outer loop
      vertex 55.075 19.782 2.359
      vertex 55.075 21.718 2.359
      vertex 24.925 21.718 2.359
    endloop
  endfacet
  facet normal 1.76752e-16 0 1
    outer loop
      vertex 24.925 19.782 2.359
      vertex 55.075 19.782 2.359
      vertex 24.925 21.718 2.359
    endloop
  endfacet
  facet normal 1.59197e-16 0.43394 0.900942
    outer loop
      vertex 55.075 18.038 3.199
      vertex 55.075 19.782 2.359
      vertex 24.925 19.782 2.359
    endloop
  endfacet
  facet normal 1.59243e-16 0.43394 0.900942
    outer loop
      vertex 24.925 18.038 3.199
      vertex 55.075 18.038 3.199
      vertex 24.925 19.782 2.359
    endloop
  endfacet
  facet normal 1.10182e-16 0.781926 0.623372
    outer loop
      vertex 55.075 18.038 3.199
      vertex 24.925 18.038 3.199
      vertex 55.075 16.831 4.713
    endloop
  endfacet
  facet normal 2.0232e-16 0.781926 0.623372
    outer loop
      vertex 55.075 16.831 4.713
      vertex 24.925 18.038 3.199
      vertex 24.925 16.831 4.713
    endloop
  endfacet
  facet normal 0 -0 -1
    outer loop
      vertex 32.3655 37.1556 1
      vertex 27.7614 35.4962 1
      vertex 35.6117 49.093 1
    endloop
  endfacet
  facet normal 0 0 -1
    outer loop
      vertex 36.3162 43.9988 1
      vertex 32.3655 37.1556 1
      vertex 35.6117 49.093 1
    endloop
  endfacet
  facet normal 0 0 -1
    outer loop
      vertex 43.4617 35.4964 1
      vertex 27.7614 35.4962 1
      vertex 32.3655 37.1556 1
    endloop
  endfacet
  facet normal 0 0 -1
    outer loop
      vertex 43.4617 35.4964 1
      vertex 32.3655 37.1556 1
      vertex 40.2667 37.1563 1
    endloop
  endfacet
  facet normal 0 0 -1
    outer loop
      vertex 43.4617 35.4964 1
      vertex 40.2667 37.1563 1
      vertex 35.6117 49.093 1
    endloop
  endfacet
  facet normal 0 0 -1
    outer loop
      vertex 40.2667 37.1563 1
      vertex 36.3162 43.9988 1
      vertex 35.6117 49.093 1
    endloop
  endfacet
  facet normal 0.866019 -0.500011 0
    outer loop
      vertex 35.6117 49.093 12.2
      vertex 35.6117 49.093 13.2
      vertex 27.7614 35.4962 13.2
    endloop
  endfacet
  facet normal 0.866019 -0.500011 0
    outer loop
      vertex 27.7614 35.4962 12.2
      vertex 35.6117 49.093 12.2
      vertex 27.7614 35.4962 13.2
    endloop
  endfacet
  facet normal -1.27755e-05 1 0
    outer loop
      vertex 43.4617 35.4964 13.2
      vertex 43.4617 35.4964 12.2
      vertex 27.7614 35.4962 13.2
    endloop
  endfacet
  facet normal -1.27755e-05 1 0
    outer loop
      vertex 27.7614 35.4962 13.2
      vertex 43.4617 35.4964 12.2
      vertex 27.7614 35.4962 12.2
    endloop
  endfacet
  facet normal -0.866025 -0.5 0
    outer loop
      vertex 43.4617 35.4964 13.2
      vertex 35.6117 49.093 13.2
      vertex 43.4617 35.4964 12.2
    endloop
  endfacet
  facet normal -0.866025 -0.5 0
    outer loop
      vertex 43.4617 35.4964 12.2
      vertex 35.6117 49.093 13.2
      vertex 35.6117 49.093 12.2
    endloop
  endfacet
  facet normal -0.866036 0.499982 0
    outer loop
      vertex 36.3162 43.9988 1
      vertex 36.3162 43.9988 0
      vertex 32.3655 37.1556 1
    endloop
  endfacet
  facet normal -0.866036 0.499982 0
    outer loop
      vertex 32.3655 37.1556 1
      vertex 36.3162 43.9988 0
      vertex 32.3655 37.1556 0
    endloop
  endfacet
  facet normal 8.85503e-05 -1 0
    outer loop
      vertex 40.2667 37.1563 0
      vertex 40.2667 37.1563 1
      vertex 32.3655 37.1556 1
    endloop
  endfacet
  facet normal 8.85503e-05 -1 0
    outer loop
      vertex 32.3655 37.1556 0
      vertex 40.2667 37.1563 0
      vertex 32.3655 37.1556 1
    endloop
  endfacet
  facet normal 0.866025 0.5 0
    outer loop
      vertex 36.3162 43.9988 1
      vertex 40.2667 37.1563 1
      vertex 40.2667 37.1563 0
    endloop
  endfacet
  facet normal 0.866025 0.5 0
    outer loop
      vertex 36.3162 43.9988 0
      vertex 36.3162 43.9988 1
      vertex 40.2667 37.1563 0
    endloop
  endfacet
  facet normal -0 0 1
    outer loop
      vertex 36.3162 43.9988 12.2
      vertex 35.6117 49.093 12.2
      vertex 27.7614 35.4962 12.2
    endloop
  endfacet
  facet normal 0 0 1
    outer loop
      vertex 43.4617 35.4964 12.2
      vertex 35.6117 49.093 12.2
      vertex 36.3162 43.9988 12.2
    endloop
  endfacet
  facet normal -0 0 1
    outer loop
      vertex 32.3655 37.1556 12.2
      vertex 36.3162 43.9988 12.2
      vertex 27.7614 35.4962 12.2
    endloop
  endfacet
  facet normal -0 0 1
    outer loop
      vertex 43.4617 35.4964 12.2
      vertex 40.2667 37.1563 12.2
      vertex 27.7614 35.4962 12.2
    endloop
  endfacet
  facet normal 0 0 1
    outer loop
      vertex 43.4617 35.4964 12.2
      vertex 36.3162 43.9988 12.2
      vertex 40.2667 37.1563 12.2
    endloop
  endfacet
  facet normal 0 0 1
    outer loop
      vertex 40.2667 37.1563 12.2
      vertex 32.3655 37.1556 12.2
      vertex 27.7614 35.4962 12.2
    endloop
  endfacet
  facet normal 0 0 -1
    outer loop
      vertex 40.2667 37.1563 0
      vertex 32.3655 37.1556 0
      vertex 36.3162 43.9988 0
    endloop
  endfacet
  facet normal 0.866025 0.5 0
    outer loop
      vertex 36.3162 43.9988 13.2
      vertex 40.2667 37.1563 13.2
      vertex 40.2667 37.1563 12.2
    endloop
  endfacet
  facet normal 0.866025 0.5 0
    outer loop
      vertex 36.3162 43.9988 12.2
      vertex 36.3162 43.9988 13.2
      vertex 40.2667 37.1563 12.2
    endloop
  endfacet
  facet normal -0.866036 0.499982 0
    outer loop
      vertex 36.3162 43.9988 13.2
      vertex 36.3162 43.9988 12.2
      vertex 32.3655 37.1556 13.2
    endloop
  endfacet
  facet normal -0.866036 0.499982 0
    outer loop
      vertex 32.3655 37.1556 13.2
      vertex 36.3162 43.9988 12.2
      vertex 32.3655 37.1556 12.2
    endloop
  endfacet
  facet normal 8.85503e-05 -1 0
    outer loop
      vertex 40.2667 37.1563 12.2
      vertex 40.2667 37.1563 13.2
      vertex 32.3655 37.1556 13.2
    endloop
  endfacet
  facet normal 8.85503e-05 -1 0
    outer loop
      vertex 32.3655 37.1556 12.2
      vertex 40.2667 37.1563 12.2
      vertex 32.3655 37.1556 13.2
    endloop
  endfacet
  facet normal 0 -0 1
    outer loop
      vertex 36.3162 43.9988 13.2
      vertex 32.3655 37.1556 13.2
      vertex 40.2667 37.1563 13.2
    endloop
  endfacet
endsolid OpenSCAD_Model
